<svg width="50" height="50" viewBox="0 0 50 50" fill="none" xmlns="http://www.w3.org/2000/svg">
<g clip-path="url(#clip0)">
<path d="M34.5979 29.67C40.5999 21.1947 38.5925 9.45891 30.1173 3.45838C21.642 -2.54214 9.90617 -0.536236 3.90564 7.9405C-2.09488 16.4158 -0.0889697 28.1502 8.38775 34.1507C14.437 38.4335 22.4349 38.7633 28.8153 34.9952L42.6789 48.7756C44.1758 50.3514 46.6664 50.4145 48.2421 48.9176C49.8179 47.4221 49.881 44.9316 48.3855 43.3558C48.3382 43.3056 48.2923 43.2597 48.2421 43.2124L34.5979 29.67ZM19.2403 30.9547C12.543 30.9561 7.1131 25.5306 7.1088 18.8332C7.10736 12.1358 12.5329 6.70598 19.2317 6.70311C25.9205 6.70024 31.3475 12.1172 31.3604 18.806C31.3718 25.5048 25.9491 30.9432 19.2489 30.9547C19.2461 30.9547 19.2446 30.9547 19.2403 30.9547Z" fill="#FAFAFA"/>
</g>
<defs>
<clipPath id="clip0">
<rect width="50" height="50" fill="white"/>
</clipPath>
</defs>
</svg>
