<?xml version="1.0" encoding="UTF-8"?><svg id="Layer_2" xmlns="http://www.w3.org/2000/svg" viewBox="0 0 1097.2 161.49"><defs><style>.cls-1{fill:#0096e3;}.cls-2{fill:#fcfcfc;}.cls-3{fill:#62b220;}</style></defs><g id="Layer_2-2"><g><path class="cls-2" d="M86.94,57.24v48.29h12.77v25.91H59.71v-9.39c-2.25,3.63-5.45,6.42-9.58,8.36-4.13,1.94-9.64,2.91-16.52,2.91-7.26,0-13.43-1.57-18.5-4.69-5.07-3.13-8.86-7.2-11.36-12.21-2.51-5.01-3.76-10.33-3.76-15.96s1.25-10.95,3.76-15.96c2.5-5.01,6.29-9.08,11.36-12.21,5.07-3.13,11.23-4.69,18.5-4.69,6.88,0,12.39,.97,16.52,2.91,4.13,1.94,7.32,4.73,9.58,8.36v-21.59s27.36-.17,27.23-.03Zm-30.98,51.11c2.5-2,3.76-4.63,3.76-7.89s-1.25-5.88-3.76-7.89c-2.51-2-6.64-3-12.39-3s-9.92,1-12.49,3c-2.57,2-3.85,4.63-3.85,7.89s1.28,5.89,3.85,7.89c2.56,2,6.73,3,12.49,3s9.89-1,12.39-3Z"/><path class="cls-1" d="M59.63,57.27H9.43v-24.04H59.64c.1,.1-.01,24.04-.01,24.04Z"/><path class="cls-2" d="M174.82,0h27.23V131.45h-27.23v-12.02c-6.14,9.27-15.21,13.9-27.23,13.9-9.14,0-16.84-2.25-23.1-6.76-6.26-4.51-10.96-10.61-14.08-18.31-3.13-7.7-4.69-16.3-4.69-25.82s1.56-18.12,4.69-25.82c3.13-7.7,7.82-13.83,14.08-18.4,6.26-4.57,13.96-6.85,23.1-6.85,12.02,0,21.09,4.63,27.23,13.9V0Zm-5.16,101.78c3.44-4.13,5.16-10.58,5.16-19.34s-1.72-15.24-5.16-19.44c-3.44-4.19-8.67-6.29-15.68-6.29s-12.43,2.1-15.87,6.29c-3.44,4.2-5.16,10.67-5.16,19.44s1.72,15.21,5.16,19.34c3.44,4.13,8.73,6.2,15.87,6.2s12.23-2.07,15.68-6.2Z"/><path class="cls-2" d="M281.49,0h27.23V131.45h-27.23v-12.02c-6.14,9.27-15.21,13.9-27.23,13.9-9.14,0-16.84-2.25-23.1-6.76-6.26-4.51-10.96-10.61-14.08-18.31-3.13-7.7-4.69-16.3-4.69-25.82s1.56-18.12,4.69-25.82c3.13-7.7,7.82-13.83,14.08-18.4,6.26-4.57,13.96-6.85,23.1-6.85,12.02,0,21.09,4.63,27.23,13.9V0Zm-5.16,101.78c3.44-4.13,5.16-10.58,5.16-19.34s-1.72-15.24-5.16-19.44c-3.44-4.19-8.67-6.29-15.68-6.29s-12.43,2.1-15.87,6.29c-3.44,4.2-5.16,10.67-5.16,19.44s1.72,15.21,5.16,19.34c3.44,4.13,8.73,6.2,15.87,6.2s12.23-2.07,15.68-6.2Z"/><path class="cls-2" d="M324.68,0h27.23V18.78h-27.23V0Zm0,33.24h27.23v98.21h-27.23V33.24Z"/><path class="cls-2" d="M375.09,119.43c-7.7-9.26-11.55-21.6-11.55-36.99s3.85-27.76,11.55-37.09c7.7-9.32,19.06-13.99,34.08-13.99,9.39,0,17.4,2,24.04,6.01,6.63,4.01,11.61,9.27,14.93,15.77,3.32,6.51,4.98,13.65,4.98,21.41h-27.23c-.38-5.88-1.69-10.33-3.94-13.33-2.25-3-6.45-4.51-12.58-4.51-7.39,0-12.33,2.07-14.83,6.2-2.51,4.13-3.76,10.64-3.76,19.53s1.22,15.37,3.66,19.44c2.44,4.07,7.42,6.1,14.93,6.1,6.13,0,10.33-1.5,12.58-4.51s3.57-7.45,3.94-13.33h27.23c0,7.76-1.66,14.9-4.98,21.41-3.32,6.51-8.29,11.77-14.93,15.77-6.64,4.01-14.65,6.01-24.04,6.01-15.02,0-26.38-4.63-34.08-13.9Z"/><g><path class="cls-2" d="M501.02,106.1h-27.25V58.59h-15.02v-25.35h15.02V0h27.23V33.24h26.29v25.35h-26.29c-.16,.16,.02,47.51,.02,47.51Z"/><path class="cls-2" d="M501.02,106.07h26.29v25.35h-26.26c-.08-.08-.03-25.35-.03-25.35Z"/></g><g><path class="cls-3" d="M824.04,106.87h-27.25V59.36h-15.02v-25.35h15.02V.77h27.23V34.01h26.29v25.35h-26.29c-.16,.16,.02,47.51,.02,47.51Z"/><path class="cls-3" d="M824.04,106.84h26.29v25.35h-26.26c-.08-.08-.03-25.35-.03-25.35Z"/></g><path class="cls-2" d="M542.31,0h27.23V18.78h-27.23V0Zm0,33.24h27.23v98.21h-27.23V33.24Z"/><path class="cls-2" d="M651.97,33.24h28.92l-29.67,98.21h-41.5l-29.86-98.21h29.11l19.9,70.04h3l20.09-70.04Z"/><path class="cls-2" d="M692.53,118.12c-7.14-10.14-10.7-21.97-10.7-35.49,0-15.4,3.5-27.79,10.52-37.18,7.01-9.39,18.09-14.08,33.24-14.08s25.79,4.48,32.67,13.43c6.88,8.95,10.33,20.88,10.33,35.77v10.89h-58.59c1,5.76,3.35,9.95,7.04,12.58,3.69,2.63,9.73,3.94,18.12,3.94,9.14,0,18.15-.87,27.04-2.63v24.97c-6.51,1.38-11.89,2.22-16.15,2.54-4.26,.31-8.83,.47-13.71,.47-19.41,0-32.67-5.07-39.81-15.21Zm48.64-44.88c-.38-5.88-1.82-10.11-4.32-12.68-2.51-2.56-6.38-3.85-11.64-3.85s-8.8,1.35-11.36,4.04c-2.57,2.69-4.1,6.85-4.6,12.49h31.92Z"/><path class="cls-3" d="M869.04,0h27.23V18.78h-27.23V0Zm0,33.24h27.23v98.21h-27.23V33.24Z"/><path class="cls-3" d="M985.09,38.21c6.26,4.57,10.95,10.7,14.08,18.4,3.13,7.7,4.69,16.31,4.69,25.82s-1.57,18.12-4.69,25.82c-3.13,7.7-7.83,13.8-14.08,18.31-6.26,4.51-13.96,6.76-23.1,6.76-12.02,0-21.1-4.63-27.23-13.9v42.06h-27.23V33.24h27.23v12.02c6.13-9.26,15.21-13.9,27.23-13.9,9.14,0,16.84,2.29,23.1,6.85Zm-13.61,63.56c3.44-4.13,5.16-10.58,5.16-19.34s-1.72-15.24-5.16-19.44c-3.44-4.19-8.67-6.29-15.68-6.29s-12.43,2.1-15.87,6.29c-3.44,4.2-5.16,10.67-5.16,19.44s1.72,15.21,5.16,19.34c3.44,4.13,8.73,6.2,15.87,6.2s12.24-2.07,15.68-6.2Z"/><path class="cls-3" d="M1033.91,130.6c-7.01-1.81-13.77-4.91-20.28-9.3v-27.42c8.14,5.13,15.9,8.76,23.28,10.89,7.39,2.13,14.77,3.19,22.16,3.19,3.63,0,6.35-.59,8.17-1.78,1.81-1.19,2.72-2.91,2.72-5.16,0-2.5-1.1-4.38-3.29-5.63-2.19-1.25-6.6-2.32-13.24-3.19-26.54-3-39.81-13.58-39.81-31.74,0-10.01,3.54-17.37,10.61-22.06,7.07-4.69,16.12-7.04,27.13-7.04,6.63,0,13.58,.88,20.84,2.63,7.26,1.75,13.08,4.13,17.46,7.14v25.35c-6.38-3.13-13.27-5.54-20.66-7.23-7.39-1.69-13.9-2.54-19.53-2.54s-8.64,2-8.64,6.01c0,2.25,1.09,4.01,3.29,5.26,2.19,1.25,6.79,2.5,13.8,3.75,9.89,1.75,17.62,3.73,23.19,5.92,5.57,2.19,9.64,5.2,12.21,9.01,2.56,3.82,3.85,8.92,3.85,15.3,0,10.02-3.91,17.75-11.74,23.19-7.83,5.45-17.56,8.17-29.2,8.17-7.89,0-15.34-.91-22.35-2.72Z"/></g></g></svg>