<?xml version="1.0" encoding="UTF-8"?>
<svg width="17px" height="13px" viewBox="0 0 17 13" version="1.1" xmlns="http://www.w3.org/2000/svg" xmlns:xlink="http://www.w3.org/1999/xlink">
    <!-- Generator: Sketch 56.3 (81716) - https://sketch.com -->
    <title>Shape</title>
    <desc>Created with Sketch.</desc>
    <g id="v2-Designs" stroke="none" stroke-width="1" fill="none" fill-rule="evenodd">
        <g id="Blog-Post-show" transform="translate(-938.000000, -113.000000)" fill="#FFFFFF">
            <g id="Group-4" transform="translate(-125.000000, -409.000000)">
                <g id="Group-4-Copy" transform="translate(1048.000000, 512.000000)">
                    <g id="Group-2" transform="translate(15.000000, 7.000000)">
                        <path d="M0,9 L5,9 L5,3 L0,3 L0,9 L0,9 Z M0,16 L5,16 L5,10 L0,10 L0,16 L0,16 Z M6,16 L11,16 L11,10 L6,10 L6,16 L6,16 Z M12,16 L17,16 L17,10 L12,10 L12,16 L12,16 Z M6,9 L11,9 L11,3 L6,3 L6,9 L6,9 Z M12,3 L12,9 L17,9 L17,3 L12,3 L12,3 Z" id="Shape"></path>
                    </g>
                </g>
            </g>
        </g>
    </g>
</svg>