<svg data-name="图层 1" xmlns="http://www.w3.org/2000/svg" width="53" height="18"><g><g><g><path fill="#00a4ff" d="M1.607 4.047h9.976V2.586H1.607v1.461zm4.237 5.689h9.448V8.275H.062v1.461h4.084c-.844 2.224-2.96 7.8-2.974 7.845a.077.077 0 00.036.1.069.069 0 00.038.008h13.207a.082.082 0 00.081-.084.072.072 0 00-.008-.032l-1.892-5h-1.58a.08.08 0 00-.082.079.071.071 0 00.007.032l1.339 3.54H3.386z"/><path d="M32.39 16.259V8.134h3.709V6.656H32.39V1.81h-1.605v4.846h-3.709v1.478h3.709v8.125h-4.199v1.478H36.59v-1.478h-4.2z"/><path d="M27.743 12a.082.082 0 00.082-.083.087.087 0 00-.02-.053l-2.1-2.5h-.67a10.643 10.643 0 001.515-2.851l.025-.077V5.172h-5.259v1.343h3.667a12.886 12.886 0 01-3.806 4.749v1.645a.082.082 0 00.083.081.076.076 0 00.042-.012 12.752 12.752 0 002.084-1.686V18h1.476v-7.352L25.993 12zM22.288 1.81a.081.081 0 00-.081.081.079.079 0 00.015.046l1.531 2.472h1.585a.084.084 0 00.08-.087.08.08 0 00-.011-.04L23.875 1.81zm29.026 2.845h-1.9l-2.825 3.682L43.7 4.655h-1.9a.082.082 0 00-.085.078.088.088 0 00.018.054l3.83 4.889-4.026 5.254a.083.083 0 00.018.116.085.085 0 00.05.016h1.906l3.1-4.048 3.171 4.048H51.7a.079.079 0 00.08-.079.078.078 0 00-.017-.048l-4.12-5.259 3.745-4.889a.082.082 0 00-.017-.116.087.087 0 00-.052-.016"/><path d="M52.861 16.062H40.55V3.546h12.182V2.069H38.945V17.54h13.916v-1.478z"/><path fill="#00a4ff" d="M19.33 2.736h-2.723V0h-1.461v2.736h-2.724v1.466h2.724v2.735h1.461V4.202h2.723V2.736z"/></g></g></g></svg>