<?xml version="1.0" encoding="UTF-8"?><svg width="146" height="142" viewBox="0 0 146 142" xmlns="http://www.w3.org/2000/svg" xmlns:xlink="http://www.w3.org/1999/xlink"><svg width="13" height="8" viewBox="-1 -1 13 8" id="caret-placeholder53e722784796872aaccc15a3c093b263" x="60" y="86"><title>Page 1</title><path d="M10.313 0L5.5 4.667.688 0 0 .667l4.813 4.666L5.5 6l.687-.667L11 .667z" fill="#999" fill-rule="evenodd"/></svg><svg width="13" height="8" viewBox="-1 -1 13 8" id="caret-primarye811f80e7b4d11e77565de90d16475c4" x="120" y="108"><title>Page 1</title><path d="M10.313 0L5.5 4.667.688 0 0 .667l4.813 4.666L5.5 6l.687-.667L11 .667z" fill="#00a4ff" fill-rule="evenodd"/></svg><svg width="13" height="8" viewBox="-1 -1 13 8" id="carete9fa54e8492ab53555a2d4bfa08e6923" x="102" y="90"><title>Page 1</title><path d="M10.313 0L5.5 4.667.688 0 0 .667l4.813 4.666L5.5 6l.687-.667L11 .667z" fill="#333" fill-rule="evenodd"/></svg><svg width="14" height="14" viewBox="-1 -1 14 14" id="close-hover42b9e2fe01deb6feeba90f03cc1f702e" x="66" y="116"><title>Page 1 Copy 4</title><path d="M10.574 0L6 4.572 1.426-.001 0 1.426l4.574 4.575L0 10.574 1.426 12 6 7.427 10.574 12 12 10.574 7.426 6.001l4.575-4.575z" fill="#00a4ff" fill-rule="evenodd"/></svg><svg width="14" height="14" viewBox="-1 -1 14 14" id="close4259952648bf7b74247e7266c95bc4a5" x="52" y="116"><title>Page 1 Copy 4</title><path d="M10.574 0L6 4.572 1.426-.001 0 1.426l4.574 4.575L0 10.574 1.426 12 6 7.427 10.574 12 12 10.574 7.426 6.001l4.575-4.575z" fill="#888" fill-rule="evenodd"/></svg><svg width="18" height="18" viewBox="-1 -1 18 18" id="collectbe1de8329b5a198a988c997eb0222f48" x="78" y="68"><title>切片备份 3</title><g fill="none" fill-rule="evenodd" stroke="#979797"><path d="M8.855 14.5C3.46 12.834.843 9.775 1.004 5.323c.084-2.325 1.865-4.291 4.123-3.725.647.163 1.637.798 2.97 1.905 1.01-.923 1.76-1.489 2.251-1.698 1.476-.63 2.932-.163 3.844 1.046.912 1.21.884 2.37.716 3.422-.147.925-.567 1.828-1.26 2.71M11.5 9v5M9 11.5h5"/></g></svg><svg width="34" height="34" viewBox="-1 -1 34 34" id="icon-error36e49d3f4a8eb6b17bfcaf182db9fae1"><g fill="#F74042"><path d="M14 20h3v3h-3zm0-12h3v10h-3z"/><path d="M15.5 0C6.94 0 0 6.94 0 15.5S6.94 31 15.5 31 31 24.06 31 15.5 24.06 0 15.5 0zm0 28C8.607 28 3 22.393 3 15.5S8.607 3 15.5 3 28 8.607 28 15.5 22.393 28 15.5 28z"/></g></svg><svg width="34" height="34" viewBox="-1 -1 34 34" id="icon-infoblueb9533b06e6151591c1ca24079fdac651" x="34"><g fill="#00a4ff"><path d="M14 8h3v3h-3zm0 5h3v10h-3z"/><path d="M31 15.5C31 6.94 24.06 0 15.5 0S0 6.94 0 15.5 6.94 31 15.5 31 31 24.06 31 15.5zm-3 0C28 22.393 22.393 28 15.5 28S3 22.393 3 15.5 8.607 3 15.5 3 28 8.607 28 15.5z"/></g></svg><svg width="34" height="34" viewBox="-1 -1 34 34" id="icon-pending4d114bd92c50e187b2675abcfb97216e" y="34"><defs><path id="aia" d="M15.388-18.842l4.631 3.394-1.773 2.421-5.634-4.13-1.008-6.544 2.965-.457.819 5.316zm10.472-.984c1.009 6.55-3.484 12.678-10.034 13.686S3.148-9.624 2.14-16.174 5.624-28.852 12.174-29.86s12.678 3.484 13.686 10.034zm-2.965.456c-.755-4.906-5.359-8.281-10.265-7.526-4.905.756-8.281 5.36-7.525 10.266s5.359 8.281 10.265 7.526 8.281-5.36 7.525-10.266z"/></defs><use xlink:href="#aia" overflow="visible" fill-rule="evenodd" clip-rule="evenodd" fill="#fff"/><clipPath id="aib"><use xlink:href="#aia" overflow="visible"/></clipPath><path transform="rotate(-8.754 13.998 -17.998)" clip-path="url(#aib)" fill="#fff" d="M-3-35h34v34H-3z"/><path d="M15.5 0C6.94 0 0 6.94 0 15.5S6.94 31 15.5 31 31 24.06 31 15.5 24.06 0 15.5 0zm0 28C8.607 28 3 22.393 3 15.5S8.607 3 15.5 3 28 8.607 28 15.5 22.393 28 15.5 28zm4.939-4.939L14 16.621V7h3v8.379l5.561 5.561-2.122 2.121z" fill="#F0B64B"/></svg><svg data-name="图层 1" width="18" height="18" viewBox="-1 -1 18 18" id="icon-successaac3305c2be9dfafd2e444f3507be978" x="120" y="90"><title>icon-success</title><path d="M7.041 8.79L5.3 7.047 3.885 8.461l3.156 3.157L8.456 10.2 12 6.624 10.586 5.21zM8 3a5 5 0 1 1-5 5 5 5 0 0 1 5-5m0-2a7 7 0 1 0 7 7 7 7 0 0 0-7-7z" fill="#0abf5b"/></svg><svg width="34" height="34" viewBox="-1 -1 34 34" id="icon-successde4fd73d628733d7ebdea179226d24da" x="34" y="34"><g fill="#0ABF5B"><path d="M13.25 17.811l-3.364-3.364-2.121 2.121 3.364 3.364 2.121 2.121 2.121-2.121 7.864-7.864-2.121-2.121z"/><path d="M15.5 0C6.94 0 0 6.94 0 15.5S6.94 31 15.5 31 31 24.06 31 15.5 24.06 0 15.5 0zm0 28C8.607 28 3 22.393 3 15.5S8.607 3 15.5 3 28 8.607 28 15.5 22.393 28 15.5 28z"/></g></svg><svg width="18" height="18" viewBox="-1 -1 18 18" id="icon-upload-disabled231596830a0da0439b37ee7c71788858" x="102"><title>画板</title><path d="M15 15H2V8h1v6h11V8h1v7zM8.5 1L11 3.828l-.625.708L9 2.98V12H8V2.98L6.625 4.536 6 3.828 8.5 1z" fill="#999" fill-rule="evenodd"/></svg><svg width="18" height="18" viewBox="-1 -1 18 18" id="icon-upload-holeecfc775882c675ea0336d47ba1b3c9f3" x="102" y="18"><title>画板</title><path d="M15 15H2V8h1v6h11V8h1v7zM8.5 1L11 3.828l-.625.708L9 2.98V12H8V2.98L6.625 4.536 6 3.828 8.5 1z" fill="#00A4FF" fill-rule="evenodd"/></svg><svg width="18" height="18" viewBox="-1 -1 18 18" id="icon-upload-link-hover1cb399c39e75d2844ba4e73db2e85df6" x="102" y="36"><title>画板</title><path d="M15 15H2V8h1v6h11V8h1v7zM8.5 1L11 3.828l-.625.708L9 2.98V12H8V2.98L6.625 4.536 6 3.828 8.5 1z" fill="#000" fill-rule="evenodd"/></svg><svg width="18" height="18" viewBox="-1 -1 18 18" id="icon-upload-link-primary-hoverde9a8195f983c959c33aa5022175d624" x="102" y="54"><title>画板</title><path d="M15 15H2V8h1v6h11V8h1v7zM8.5 1L11 3.828l-.625.708L9 2.98V12H8V2.98L6.625 4.536 6 3.828 8.5 1z" fill="#0092EE" fill-rule="evenodd"/></svg><svg width="18" height="18" viewBox="-1 -1 18 18" id="icon-upload-link-primaryecfc775882c675ea0336d47ba1b3c9f3" x="102" y="72"><title>画板</title><path d="M15 15H2V8h1v6h11V8h1v7zM8.5 1L11 3.828l-.625.708L9 2.98V12H8V2.98L6.625 4.536 6 3.828 8.5 1z" fill="#00A4FF" fill-rule="evenodd"/></svg><svg width="18" height="18" viewBox="-1 -1 18 18" id="icon-upload-linkf410bb38b5f701cd6aa9492f805e6c8a" y="98"><title>画板</title><path d="M15 15H2V8h1v6h11V8h1v7zM8.5 1L11 3.828l-.625.708L9 2.98V12H8V2.98L6.625 4.536 6 3.828 8.5 1z" fill="#666" fill-rule="evenodd"/></svg><svg width="18" height="18" viewBox="-1 -1 18 18" id="icon-upload-pay632eb9d86fe355d1e8c12d31974ddf38" x="18" y="98"><title>画板</title><path d="M15 15H2V8h1v6h11V8h1v7zM8.5 1L11 3.828l-.625.708L9 2.98V12H8V2.98L6.625 4.536 6 3.828 8.5 1z" fill="#fff" fill-rule="evenodd"/></svg><svg width="18" height="18" viewBox="-1 -1 18 18" id="icon-upload-primary632eb9d86fe355d1e8c12d31974ddf38" x="60" y="68"><title>画板</title><path d="M15 15H2V8h1v6h11V8h1v7zM8.5 1L11 3.828l-.625.708L9 2.98V12H8V2.98L6.625 4.536 6 3.828 8.5 1z" fill="#fff" fill-rule="evenodd"/></svg><svg width="18" height="18" viewBox="-1 -1 18 18" id="icon-upload-weak-hover1cb399c39e75d2844ba4e73db2e85df6" x="54" y="98"><title>画板</title><path d="M15 15H2V8h1v6h11V8h1v7zM8.5 1L11 3.828l-.625.708L9 2.98V12H8V2.98L6.625 4.536 6 3.828 8.5 1z" fill="#000" fill-rule="evenodd"/></svg><svg width="18" height="18" viewBox="-1 -1 18 18" id="icon-upload-weakf410bb38b5f701cd6aa9492f805e6c8a" x="72" y="98"><title>画板</title><path d="M15 15H2V8h1v6h11V8h1v7zM8.5 1L11 3.828l-.625.708L9 2.98V12H8V2.98L6.625 4.536 6 3.828 8.5 1z" fill="#666" fill-rule="evenodd"/></svg><svg width="18" height="18" viewBox="-1 -1 18 18" id="icon-upload-white-hole-hover1cb399c39e75d2844ba4e73db2e85df6" x="90" y="98"><title>画板</title><path d="M15 15H2V8h1v6h11V8h1v7zM8.5 1L11 3.828l-.625.708L9 2.98V12H8V2.98L6.625 4.536 6 3.828 8.5 1z" fill="#000" fill-rule="evenodd"/></svg><svg width="18" height="18" viewBox="-1 -1 18 18" id="icon-upload-white-hole9d32648e51f42e020f5ad8715912833c" x="120"><title>画板</title><path d="M15 15H2V8h1v6h11V8h1v7zM8.5 1L11 3.828l-.625.708L9 2.98V12H8V2.98L6.625 4.536 6 3.828 8.5 1z" fill="#fff" fill-rule="evenodd"/></svg><svg width="18" height="18" viewBox="-1 -1 18 18" id="icon-uploadecfc775882c675ea0336d47ba1b3c9f3" x="120" y="18"><title>画板</title><path d="M15 15H2V8h1v6h11V8h1v7zM8.5 1L11 3.828l-.625.708L9 2.98V12H8V2.98L6.625 4.536 6 3.828 8.5 1z" fill="#00A4FF" fill-rule="evenodd"/></svg><svg width="34" height="34" viewBox="-1 -1 34 34" id="icon-warning503280f8997355f947bfdb95d922f756" x="68"><g fill="none" fill-rule="evenodd"><path d="M0 0h32v32H0z"/><path d="M14 23v-3h3v3h-3zm0-5V8h3v10h-3zm1.5 10C22.393 28 28 22.393 28 15.5S22.393 3 15.5 3 3 8.607 3 15.5 8.607 28 15.5 28zm0-28C24.061 0 31 6.939 31 15.5S24.061 31 15.5 31 0 24.061 0 15.5 6.939 0 15.5 0z" fill="#F0B64B"/></g></svg><svg width="12" height="8" viewBox="-1 -1 12 8" id="link-arrow-bottom-gray7d2480ab77534045a60b22f2bb2e00cc" x="73" y="86"><title>Path</title><path d="M5 3.6L8.75 0 10 1.2 5 6 3.75 4.8 0 1.2 1.25 0z" fill="#666" fill-rule="evenodd"/></svg><svg width="10" height="7" viewBox="-1 -1 10 7" id="link-arrow-bottom-s-gray79487b637898a040c95098068464eb2c" x="76" y="134"><title>Path</title><path d="M4 2.956L6.969 0 8 1.022 4 5 0 1.023 1.031 0z" fill="#666" fill-rule="evenodd"/></svg><svg width="10" height="7" viewBox="-1 -1 10 7" id="link-arrow-bottom-s-white83192a9286b4233f775c3c2f5b23a831" x="66" y="134"><title>Path</title><path d="M4 2.956L6.969 0 8 1.022 4 5 0 1.023 1.031 0z" fill="#fff" fill-rule="evenodd"/></svg><svg width="10" height="7" viewBox="-1 -1 10 7" id="link-arrow-bottom-s0879cf9a38bc2b0999de834f0da504dd" x="56" y="134"><title>Path</title><path d="M4 2.956L6.969 0 8 1.022 4 5 0 1.023 1.031 0z" fill="#00A4FF" fill-rule="evenodd"/></svg><svg width="12" height="8" viewBox="-1 -1 12 8" id="link-arrow-bottom-whitedb62ba92ea0b68a48ac5fc5ee4aa8460" x="116" y="116"><title>Path</title><path d="M5 3.6L8.75 0 10 1.2 5 6 3.75 4.8 0 1.2 1.25 0z" fill="#fff" fill-rule="evenodd"/></svg><svg width="12" height="8" viewBox="-1 -1 12 8" id="link-arrow-bottom055134e82166ace47b840ea07c7fe1e9" x="24" y="134"><title>Path</title><path d="M5 3.6L8.75 0 10 1.2 5 6 3.75 4.8 0 1.2 1.25 0z" fill="#00A4FF" fill-rule="evenodd"/></svg><svg width="8" height="12" viewBox="-1 -1 8 12" id="link-arrow-graya26be99375a6f15010a3fd09dc067847" x="88" y="116"><title>Path</title><path d="M3.6 5L0 1.25 1.2 0 6 5 4.8 6.25 1.2 10 0 8.75z" fill="#666" fill-rule="evenodd"/></svg><svg width="8" height="12" viewBox="-1 -1 8 12" id="link-arrow-left-gray3febaef58f70e580742e9e86d2a15ec4" x="96" y="116"><title>Path</title><path d="M2.4 5L6 1.25 4.8 0 0 5l1.2 1.25L4.8 10 6 8.75z" fill="#666" fill-rule="evenodd"/></svg><svg width="7" height="10" viewBox="-1 -1 7 10" id="link-arrow-left-s-grayeec740ab29198dc1e09cc5f0e20678f5" x="138" y="64"><title>Path</title><path d="M2.044 4L5 1.031 3.978 0 0 4l3.978 4L5 6.969z" fill="#666" fill-rule="evenodd"/></svg><svg width="7" height="10" viewBox="-1 -1 7 10" id="link-arrow-left-s-white33c0235d384da0ffe74335ef8439b1fa" x="138" y="54"><title>Path</title><path d="M2.044 4L5 1.031 3.978 0 0 4l3.978 4L5 6.969z" fill="#fff" fill-rule="evenodd"/></svg><svg width="7" height="10" viewBox="-1 -1 7 10" id="link-arrow-left-s7e7f7b6cbb4ebdeeeb684b27acdfac05" x="138" y="74"><title>Path</title><path d="M2.044 4L5 1.031 3.978 0 0 4l3.978 4L5 6.969z" fill="#00A4FF" fill-rule="evenodd"/></svg><svg width="8" height="12" viewBox="-1 -1 8 12" id="link-arrow-left-whitec772b9d05ae8467bb6720ae8bc91dfd1" x="108" y="98"><title>Path</title><path d="M2.4 5L6 1.25 4.8 0 0 5l1.2 1.25L4.8 10 6 8.75z" fill="#fff" fill-rule="evenodd"/></svg><svg width="8" height="12" viewBox="-1 -1 8 12" id="link-arrow-leftadeb81d6939ed5ebe3049554ae952e87" x="80" y="116"><title>Path</title><path d="M2.4 5L6 1.25 4.8 0 0 5l1.2 1.25L4.8 10 6 8.75z" fill="#00A4FF" fill-rule="evenodd"/></svg><svg width="7" height="10" viewBox="-1 -1 7 10" id="link-arrow-s-gray39333df52ba21855cb63384e60f463d4" x="138" y="44"><title>Path</title><path d="M2.956 4L0 1.031 1.022 0 5 4 1.022 8 0 6.969z" fill="#666" fill-rule="evenodd"/></svg><svg width="7" height="10" viewBox="-1 -1 7 10" id="link-arrow-s-white4b2cf5fd3a02527d4b19721249138535" x="138" y="34"><title>Path</title><path d="M2.956 4L0 1.031 1.022 0 5 4 1.022 8 0 6.969z" fill="#fff" fill-rule="evenodd"/></svg><svg width="7" height="10" viewBox="-1 -1 7 10" id="link-arrow-s87606e728598af5dd15fac020ddc9aba" x="138" y="24"><title>Path</title><path d="M2.956 4L0 1.031 1.022 0 5 4 1.022 8 0 6.969z" fill="#00A4FF" fill-rule="evenodd"/></svg><svg width="12" height="8" viewBox="-1 -1 12 8" id="link-arrow-top-graya4b3b411daaa775ec7ba2ed8d2ef1709" x="104" y="116"><title>Path</title><path d="M5 2.4L8.75 6 10 4.8 5 0 3.75 1.2 0 4.8 1.25 6z" fill="#666" fill-rule="evenodd"/></svg><svg width="10" height="7" viewBox="-1 -1 10 7" id="link-arrow-top-s-gray112353a5e2292ac0302c363558ad5267" x="36" y="134"><title>Path</title><path d="M4 2.044L6.969 5 8 3.978 4 0 0 3.977 1.031 5z" fill="#666" fill-rule="evenodd"/></svg><svg width="10" height="7" viewBox="-1 -1 10 7" id="link-arrow-top-s-white18d5225a599eb70ca2744a352c709c85" x="46" y="134"><title>Path</title><path d="M4 2.044L6.969 5 8 3.978 4 0 0 3.977 1.031 5z" fill="#fff" fill-rule="evenodd"/></svg><svg width="10" height="7" viewBox="-1 -1 10 7" id="link-arrow-top-s98498fda16df0cd30b07ad0cb41e4b50" x="128" y="116"><title>Path</title><path d="M4 2.044L6.969 5 8 3.978 4 0 0 3.977 1.031 5z" fill="#00A4FF" fill-rule="evenodd"/></svg><svg width="12" height="8" viewBox="-1 -1 12 8" id="link-arrow-top-whitef4c1b3a48b279397a47160829ac62b92" y="134"><title>Path</title><path d="M5 2.4L8.75 6 10 4.8 5 0 3.75 1.2 0 4.8 1.25 6z" fill="#fff" fill-rule="evenodd"/></svg><svg width="12" height="8" viewBox="-1 -1 12 8" id="link-arrow-top14571d59d88b639517616d261e2d6f0e" x="12" y="134"><title>Path</title><path d="M5 2.4L8.75 6 10 4.8 5 0 3.75 1.2 0 4.8 1.25 6z" fill="#00A4FF" fill-rule="evenodd"/></svg><svg width="8" height="12" viewBox="-1 -1 8 12" id="link-arrow-white8702911dd3d731a45141ad85ee1842d4" x="138" y="12"><title>Path</title><path d="M3.6 5L0 1.25 1.2 0 6 5 4.8 6.25 1.2 10 0 8.75z" fill="#fff" fill-rule="evenodd"/></svg><svg width="8" height="12" viewBox="-1 -1 8 12" id="link-arrow66d13975ca40ec0d721e0ee011611232" x="138"><title>Path</title><path d="M3.6 5L0 1.25 1.2 0 6 5 4.8 6.25 1.2 10 0 8.75z" fill="#00A4FF" fill-rule="evenodd"/></svg><svg width="18" height="18" viewBox="-1 -1 18 18" id="point2fefe1260a4dcbd7ea156fa84d5a2d6c" x="120" y="36"><title>点</title><g fill="none" fill-rule="evenodd"><path d="M0 0h16v16H0z"/><circle fill="#999" cx="8" cy="8" r="1.5"/></g></svg><svg data-name="图层 1" width="18" height="18" viewBox="-1 -1 18 18" id="r-cc2c10bac4cf39c50715e3f5724650669" x="120" y="54"><title>单-选中</title><circle cx="8" cy="8" r="7.5" fill="#fff"/><path d="M8 .98a7 7 0 1 1-7 7 7 7 0 0 1 7-7m0-1a8 8 0 1 0 8 8 8 8 0 0 0-8-8z" fill="#ddd"/><circle cx="8" cy="8" r="4" fill="#00a4ff"/></svg><svg data-name="图层 1" width="18" height="18" viewBox="-1 -1 18 18" id="r-d-c895ddfbe1c7757e5f58fa9e66fb4de07" x="120" y="72"><title>单-不可点02</title><circle cx="8" cy="8" r="7.5" fill="#f5f7fa"/><path d="M8 1a7 7 0 1 1-7 7 7 7 0 0 1 7-7m0-1a8 8 0 1 0 8 8 8 8 0 0 0-8-8z" fill="#ddd"/><circle cx="8" cy="8" r="4" fill="#ddd"/></svg><svg data-name="图层 1" width="18" height="18" viewBox="-1 -1 18 18" id="r-d524eefffeda4b997bde363c45cb34baa" x="36" y="98"><title>单-不可点</title><circle cx="8" cy="8" r="7.5" fill="#f5f7fa"/><path d="M8 1a7 7 0 0 1 7 7 7 7 0 0 1-7 7 7 7 0 0 1-7-7 7 7 0 0 1 7-7m0-1a8 8 0 1 0 8 8 8 8 0 0 0-8-8z" fill="#ddd"/></svg><svg data-name="图层 1" width="18" height="18" viewBox="-1 -1 18 18" id="r651e0bee8a66061409e0577664041d6a" y="116"><title>单-常态</title><circle cx="8" cy="8" r="7.5" fill="#fff"/><path d="M8 1a7 7 0 1 1-7 7 7 7 0 0 1 7-7m0-1a8 8 0 1 0 8 8 8 8 0 0 0-8-8z" fill="#ddd"/></svg><svg width="18" height="18" viewBox="-1 -1 18 18" id="reading52fed7b0209f990f829a82611bf889f3" x="18" y="116"><title>切片</title><path d="M7.916 3.5c2.93.032 5.416 1.72 7.497 4.98-1.014 1.67-2.128 2.922-3.351 3.759-1.264.864-2.642 1.28-4.134 1.26-2.856-.036-5.23-1.687-7.165-4.865.944-1.747 1.987-3.016 3.138-3.857C5.12 3.885 6.46 3.485 7.916 3.5zM8.04 5.92c-.69 0-1.316.28-1.768.732a2.492 2.492 0 0 0-.732 1.768c0 .69.28 1.315.732 1.768a2.492 2.492 0 0 0 1.768.732c.69 0 1.315-.28 1.768-.732a2.492 2.492 0 0 0 .732-1.768c0-.69-.28-1.316-.732-1.768a2.492 2.492 0 0 0-1.768-.732z" stroke="#979797" fill="none" fill-rule="evenodd"/></svg><svg width="16" height="16" viewBox="-1 -1 16 16" id="risee905b8465a55a9b374b7624c8014f5b7" x="36" y="116"><title>折线</title><defs><path id="cda" d="M0 0h14v14H0z"/></defs><g fill="none" fill-rule="evenodd"><mask id="cdb" fill="#fff"><use xlink:href="#cda"/></mask><path d="M9.21 1.071l2.5 3.586H9.736v4.389H4.935v5.329h-1.2V7.824h4.8V4.656l-1.825.001 2.5-3.586z" fill="#999" mask="url(#cdb)" transform="rotate(45 7.723 7.723)"/></g></svg><svg width="30" height="30" viewBox="-1 -1 30 30" id="star-full03c6d58ad0c7f0fd8f7b388da746bb8d" x="30" y="68"><title>Path</title><path stroke="#D4B779" stroke-width="2" fill="#D4B779" d="M25 11.64l-7.374-1.354L14 4l-3.626 6.286L3 11.64l5.133 5.238L7.201 24 14 20.952 20.798 24l-.931-7.122z" fill-rule="evenodd"/></svg><svg width="30" height="30" viewBox="-1 -1 30 30" id="star-half74cbf5ee16ccd3ea3d98988e8833f8da" y="68"><title>Path</title><g fill="none" fill-rule="evenodd"><path stroke="#D4B779" stroke-width="2" d="M25 11.64l-7.374-1.354L14 4l-3.626 6.286L3 11.64l5.133 5.238L7.201 24 14 20.952 20.798 24l-.931-7.122z"/><path d="M14 4V20.952L7.201 24l.932-7.122L3 11.64l7.374-1.354L14 4z" fill="#D4B779"/></g></svg><svg width="30" height="30" viewBox="-1 -1 30 30" id="starc16c8e62e249aee41840769a8faf3186" x="68" y="34"><title>Path</title><path stroke="#D4B779" stroke-width="2" d="M25 11.64l-7.374-1.354L14 4l-3.626 6.286L3 11.64l5.133 5.238L7.201 24 14 20.952 20.798 24l-.931-7.122z" fill="none" fill-rule="evenodd"/></svg><svg width="12" height="8" viewBox="-1 -1 12 8" id="toggle-arrow-hoverdd6790a9e8b48dc128852f14702b2f47" x="85" y="86"><title>Group 2</title><g transform="rotate(90 6 4)" fill="none" fill-rule="evenodd"><path fill-rule="nonzero" d="M0 0h10v10H0z"/><path fill="#00a4ff" d="M5.6 5L2 1.25 3.2 0 8 5 6.8 6.25 3.2 10 2 8.75z"/></g></svg></svg>