<svg xmlns="http://www.w3.org/2000/svg" width="100%" height="100%" viewBox="0 0 1994.3 1379.58">
  <rect x="415.82" y="290.96" width="1280" height="853.3" style="fill: #fff"/>
  <path d="M1041.32,1377.66l-409.1-7.5c-132.5-2.6-265.3,2.6-395.1-24.4-197.7-40.4-211.6-238.3-226.3-404.3-20.2-233.4-12.4-471,25.7-702.4,21.5-129.8,106.1-207.3,237-215.7,441.7-30.6,886.3-27,1327-12.7,46.5,1.3,93.4,8.5,139.3,16.6,226.5,39.7,232.1,264,246.8,452.8,14.6,190.7,8.5,382.4-19.5,571.9-22.5,156.8-65.4,288.4-246.8,301.1-227.2,16.6-449.2,30-677,25.7C1043.22,1377.66,1041.92,1377.66,1041.32,1377.66Zm-240.5-397.1c171.2-98.3,339.2-195,509.4-292.6-171.6-98.3-339.2-195-509.4-292.6Z" style="fill: red"/>
</svg>