<svg width="117" height="42" viewBox="0 0 117 42" fill="none" xmlns="http://www.w3.org/2000/svg">
<path d="M57.0781 30.2242C57.0451 30.2238 57.0127 30.2156 56.9836 30.2002C56.9545 30.1848 56.9294 30.1626 56.9106 30.1356L56.0373 28.8781C56.0162 28.8489 56.0035 28.8145 56.0006 28.7786C55.9977 28.7427 56.0047 28.7067 56.0209 28.6745C56.0355 28.6416 56.0589 28.6132 56.0883 28.5924C56.1178 28.5716 56.1523 28.5591 56.1883 28.5563C62.4559 27.9588 67.4562 25.7591 72.4039 21.422C72.4251 21.4029 72.4501 21.3886 72.4773 21.3801C72.5045 21.3716 72.5333 21.3691 72.5615 21.3727C72.5894 21.3747 72.6165 21.3828 72.6409 21.3964C72.6653 21.41 72.6864 21.4289 72.7027 21.4515L73.5268 22.535C73.5598 22.5757 73.5755 22.6277 73.5706 22.6799C73.5657 22.7321 73.5406 22.7802 73.5005 22.8141C68.3689 27.2562 63.6083 29.4001 57.1043 30.2209L57.0781 30.2242Z" fill="black"/>
<path d="M66.0343 11.6877H64.5799C64.4657 11.6877 64.373 11.7804 64.373 11.8946V23.7108C64.373 23.825 64.4657 23.9176 64.5799 23.9176H66.0343C66.1486 23.9176 66.2412 23.825 66.2412 23.7108V11.8946C66.2412 11.7804 66.1486 11.6877 66.0343 11.6877Z" fill="black"/>
<path d="M57.9452 22.4174H56.3528C56.3182 22.4174 56.2841 22.4086 56.2537 22.392C56.2233 22.3754 56.1975 22.3514 56.1788 22.3222C56.1627 22.2918 56.1543 22.258 56.1543 22.2237C56.1543 22.1893 56.1627 22.1555 56.1788 22.1252L59.5933 14.6034C59.6133 14.5696 59.6409 14.541 59.674 14.5199C59.7071 14.4988 59.7447 14.4858 59.7837 14.4819H61.3761C61.4103 14.4824 61.4439 14.491 61.4741 14.507C61.5044 14.523 61.5304 14.5459 61.5501 14.5739C61.5662 14.6042 61.5746 14.638 61.5746 14.6724C61.5746 14.7067 61.5662 14.7405 61.5501 14.7709L58.1323 22.2992C58.1158 22.3348 58.0894 22.365 58.0562 22.3859C58.023 22.4069 57.9844 22.4178 57.9452 22.4174V22.4174Z" fill="black"/>
<path d="M72.174 20.0336C72.1381 20.0335 72.103 20.024 72.0719 20.0062C72.0408 19.9883 72.0149 19.9627 71.9967 19.9318L69.0254 14.774C69.0069 14.7432 68.9971 14.708 68.9971 14.6722C68.9971 14.6363 69.0069 14.6011 69.0254 14.5704C69.0429 14.5387 69.0686 14.5122 69.0998 14.4938C69.1309 14.4753 69.1665 14.4655 69.2027 14.4653H70.8771C70.9124 14.4695 70.9466 14.4807 70.9776 14.4981C71.0086 14.5156 71.0358 14.5391 71.0577 14.5671L74.0323 19.725C74.0501 19.7559 74.0595 19.791 74.0595 19.8268C74.0595 19.8625 74.0501 19.8976 74.0323 19.9285C74.015 19.9605 73.9894 19.9871 73.9582 20.0056C73.9269 20.0241 73.8913 20.0338 73.855 20.0336H72.1838H72.174Z" fill="black"/>
<path d="M103.558 30.1819C103.534 30.1865 103.51 30.1865 103.486 30.1819L102.255 29.7091C102.204 29.6884 102.163 29.6498 102.14 29.6007C102.129 29.5758 102.124 29.549 102.124 29.5219C102.124 29.4949 102.129 29.4681 102.14 29.4431L102.875 27.5356C103.172 26.7628 103.412 25.9694 103.594 25.1619C103.86 23.962 103.995 22.7367 103.995 21.5077V13.3358C103.995 13.2754 104.017 13.217 104.057 13.1717C104.1 13.1323 104.146 13.0732 104.208 13.0929C109.268 13.2111 111.392 12.6234 114.078 11.8781L114.734 11.6943C114.776 11.6824 114.821 11.6842 114.862 11.6996C114.902 11.715 114.937 11.743 114.961 11.7796L115.739 12.9484C115.757 12.9745 115.768 13.0045 115.772 13.0359C115.776 13.0673 115.773 13.0993 115.762 13.129C115.751 13.1596 115.734 13.1873 115.71 13.2096C115.687 13.2319 115.658 13.2482 115.627 13.257L115.299 13.3555C112.541 14.1895 110.528 14.8001 105.912 14.8461C105.861 14.8461 105.812 14.8659 105.775 14.9015C105.738 14.937 105.717 14.9854 105.715 15.0365V21.6324C105.713 22.9376 105.563 24.2384 105.269 25.5099L105.2 25.8054C105.017 26.6113 104.778 27.4034 104.484 28.1758L103.752 30.0571C103.732 30.1082 103.693 30.1495 103.644 30.172C103.616 30.1817 103.587 30.1851 103.558 30.1819V30.1819Z" fill="black"/>
<path d="M100.797 21.0021C100.763 21.0018 100.729 20.9925 100.699 20.9753C100.669 20.958 100.644 20.9333 100.627 20.9036L98.2857 17.2034C98.2707 17.181 98.2604 17.1557 98.2554 17.1291C98.2504 17.1026 98.2508 17.0753 98.2567 17.0489C98.2625 17.0225 98.2736 16.9976 98.2893 16.9756C98.305 16.9537 98.325 16.9351 98.3481 16.9211L100.036 15.854C100.063 15.8381 100.087 15.8166 100.105 15.7909C100.123 15.7653 100.136 15.736 100.143 15.7051C100.149 15.6742 100.149 15.6423 100.143 15.6114C100.136 15.5805 100.123 15.5513 100.105 15.5257L98.3382 12.7744C98.3237 12.7518 98.3137 12.7265 98.309 12.7001C98.3042 12.6736 98.3048 12.6465 98.3106 12.6202C98.3164 12.594 98.3273 12.5691 98.3428 12.5471C98.3582 12.5251 98.3779 12.5064 98.4006 12.492L99.6253 11.7041C99.6716 11.6754 99.7274 11.6658 99.7807 11.6774C99.834 11.6891 99.8807 11.721 99.9109 11.7665L102.101 15.181C102.115 15.1979 102.124 15.2184 102.127 15.2401L102.688 16.1265C102.703 16.149 102.714 16.1743 102.719 16.2008C102.724 16.2273 102.723 16.2546 102.718 16.281C102.712 16.3074 102.701 16.3323 102.685 16.3543C102.669 16.3763 102.649 16.3948 102.626 16.4089L100.948 17.4694C100.922 17.4857 100.898 17.5074 100.88 17.5329C100.862 17.5585 100.849 17.5875 100.842 17.6181C100.836 17.6488 100.835 17.6805 100.841 17.7113C100.847 17.7422 100.859 17.7716 100.876 17.7977L102.206 19.8956C102.221 19.9182 102.23 19.9435 102.235 19.9701C102.239 19.9966 102.239 20.0238 102.232 20.0499C102.22 20.104 102.187 20.1511 102.14 20.1813L100.909 20.9594C100.876 20.9832 100.838 20.9979 100.797 21.0021V21.0021Z" fill="black"/>
<path d="M99.6905 30.3296C99.6656 30.3345 99.64 30.3345 99.615 30.3296L98.2459 29.778C98.2208 29.7682 98.1979 29.7536 98.1785 29.7349C98.1591 29.7162 98.1436 29.6938 98.1329 29.6691C98.1222 29.6443 98.1165 29.6177 98.1162 29.5907C98.1159 29.5638 98.1209 29.5371 98.131 29.5121L101.257 21.5733C101.266 21.5482 101.281 21.5253 101.3 21.5059C101.318 21.4865 101.341 21.471 101.366 21.4603C101.39 21.4496 101.417 21.4439 101.444 21.4436C101.471 21.4433 101.498 21.4483 101.523 21.4584L102.879 21.9903C102.904 22 102.927 22.0148 102.947 22.0338C102.967 22.0527 102.982 22.0754 102.993 22.1005C103.004 22.1257 103.009 22.1527 103.009 22.18C103.009 22.2073 103.004 22.2343 102.993 22.2595L99.8875 30.1983C99.8778 30.2231 99.8632 30.2458 99.8446 30.265C99.826 30.2842 99.8038 30.2994 99.7792 30.3099C99.7519 30.324 99.7213 30.3308 99.6905 30.3296V30.3296Z" fill="black"/>
<path d="M115.348 30.2246C115.315 30.2249 115.283 30.2173 115.254 30.2024C115.225 30.1876 115.2 30.1659 115.181 30.1393L113.608 27.9625C113.323 27.5679 113.068 27.1519 112.846 26.7182L112.055 25.1652C111.739 24.549 111.494 23.8992 111.323 23.2282L109.908 17.7551C109.898 17.7175 109.875 17.6847 109.843 17.6625C109.811 17.6402 109.772 17.63 109.734 17.6336C109.386 17.6599 109.054 17.6796 108.726 17.696C108.686 17.6969 108.649 17.7131 108.621 17.7414C108.594 17.7696 108.578 17.8075 108.578 17.847V28.2514C108.578 28.3011 108.598 28.3487 108.633 28.3838C108.668 28.4189 108.716 28.4386 108.765 28.4386H111.211C111.266 28.4386 111.319 28.4604 111.357 28.4992C111.396 28.5379 111.418 28.5906 111.418 28.6454V29.9587C111.418 30.0135 111.396 30.0662 111.357 30.1049C111.319 30.1437 111.266 30.1655 111.211 30.1655H107.071C107.012 30.1647 106.956 30.1409 106.914 30.0992C106.873 30.0575 106.849 30.0012 106.848 29.9423V16.8095C106.846 16.7932 106.846 16.7767 106.848 16.7603V16.1857C106.848 16.1308 106.87 16.0781 106.907 16.038C106.926 16.0189 106.95 16.0038 106.975 15.9937C107 15.9835 107.027 15.9785 107.055 15.9789C109.314 15.973 111.565 15.7031 113.762 15.1745L114.639 14.9939C114.682 14.9845 114.726 14.9894 114.766 15.0078C114.806 15.0262 114.838 15.057 114.859 15.0957L115.538 16.3597C115.553 16.3882 115.561 16.4197 115.561 16.4517C115.561 16.4837 115.553 16.5152 115.538 16.5436C115.525 16.5729 115.505 16.5987 115.48 16.6187C115.455 16.6387 115.426 16.6523 115.394 16.6585L114.537 16.8457C113.608 17.0525 112.725 17.2495 111.776 17.4038C111.754 17.4068 111.733 17.4144 111.714 17.4261C111.696 17.4377 111.68 17.4532 111.667 17.4714C111.655 17.4897 111.646 17.5104 111.643 17.5321C111.639 17.5538 111.639 17.5761 111.645 17.5975L112.495 20.9102C112.501 20.9355 112.513 20.9591 112.53 20.9795C112.546 20.9998 112.567 21.0165 112.59 21.0283C112.613 21.0401 112.639 21.0468 112.665 21.0479C112.691 21.0491 112.717 21.0447 112.741 21.035L115.486 19.8793C115.511 19.8679 115.538 19.8619 115.565 19.8619C115.592 19.8619 115.619 19.8679 115.644 19.8793C115.669 19.8892 115.693 19.9042 115.712 19.9233C115.732 19.9425 115.748 19.9655 115.758 19.9909L116.261 21.209C116.281 21.2595 116.281 21.3162 116.26 21.3666C116.24 21.417 116.2 21.4572 116.149 21.4782L113.138 22.7258C113.098 22.7414 113.065 22.7716 113.045 22.8105C113.026 22.8494 113.021 22.8941 113.033 22.936C113.192 23.467 113.398 23.9825 113.651 24.4758V24.4758L114.307 25.7431C114.506 26.1415 114.734 26.5245 114.99 26.8889L116.816 29.4498C116.835 29.476 116.847 29.5063 116.852 29.5382C116.857 29.5701 116.855 29.6028 116.845 29.6336C116.836 29.6643 116.82 29.6922 116.797 29.7151C116.775 29.738 116.748 29.7551 116.717 29.765L115.404 30.2115C115.386 30.2195 115.367 30.2239 115.348 30.2246V30.2246Z" fill="black"/>
<path d="M82.8899 21.3009H81.4355C81.3806 21.3009 81.328 21.2791 81.2892 21.2403C81.2504 21.2015 81.2287 21.1489 81.2287 21.0941V17.3086C81.2287 17.2624 81.2103 17.2181 81.1777 17.1855C81.1451 17.1529 81.1008 17.1345 81.0546 17.1345H77.2133C77.1593 17.1345 77.1076 17.1131 77.0694 17.0749C77.0312 17.0368 77.0098 16.985 77.0098 16.931V15.6111C77.0098 15.5569 77.0311 15.5047 77.0692 15.466C77.1073 15.4273 77.159 15.4052 77.2133 15.4043H81.0546C81.1008 15.4043 81.1451 15.386 81.1777 15.3533C81.2103 15.3207 81.2287 15.2764 81.2287 15.2303V11.8946C81.2287 11.8397 81.2504 11.7871 81.2892 11.7483C81.328 11.7095 81.3806 11.6877 81.4355 11.6877H82.8899C82.9448 11.6877 82.9974 11.7095 83.0362 11.7483C83.075 11.7871 83.0968 11.8397 83.0968 11.8946V15.2336C83.0968 15.2797 83.1151 15.324 83.1477 15.3566C83.1804 15.3893 83.2246 15.4076 83.2708 15.4076H87.1318C87.1867 15.4076 87.2393 15.4294 87.2781 15.4682C87.3169 15.507 87.3387 15.5596 87.3387 15.6144V16.9277C87.3378 16.982 87.3156 17.0338 87.2769 17.0718C87.2382 17.1099 87.1861 17.1313 87.1318 17.1313H83.2708C83.2479 17.1313 83.2253 17.1358 83.2042 17.1445C83.1831 17.1533 83.1639 17.1661 83.1477 17.1822C83.1316 17.1984 83.1188 17.2176 83.11 17.2387C83.1013 17.2598 83.0968 17.2824 83.0968 17.3053V21.0941C83.0968 21.1489 83.075 21.2015 83.0362 21.2403C82.9974 21.2791 82.9448 21.3009 82.8899 21.3009V21.3009Z" fill="black"/>
<path d="M79.2035 15.4469C79.1656 15.4466 79.1285 15.436 79.0962 15.4164C79.0638 15.3967 79.0373 15.3687 79.0196 15.3352L77.6308 12.6233C77.6113 12.5726 77.6113 12.5165 77.6308 12.4657C77.6498 12.4138 77.6872 12.3706 77.7359 12.3443L79.0327 11.6876C79.0813 11.6642 79.137 11.6603 79.1883 11.6768C79.2397 11.6933 79.2827 11.7289 79.3085 11.7763L80.694 14.4915C80.7047 14.5164 80.7102 14.5432 80.7102 14.5703C80.7102 14.5973 80.7047 14.6242 80.694 14.6491C80.6765 14.7001 80.6401 14.7424 80.5922 14.7673L79.279 15.4239C79.2557 15.4367 79.23 15.4446 79.2035 15.4469Z" fill="black"/>
<path d="M84.9623 15.4568C84.9147 15.4561 84.8686 15.44 84.8309 15.4108L83.7179 14.4719C83.6763 14.4362 83.6503 14.3857 83.6454 14.3311C83.6405 14.2765 83.6571 14.2222 83.6917 14.1797L85.7207 11.7731C85.7558 11.7317 85.8057 11.7057 85.8598 11.7008C85.9138 11.6959 85.9676 11.7124 86.0096 11.7468L87.1226 12.6858C87.1642 12.7215 87.1903 12.772 87.1952 12.8266C87.2001 12.8812 87.1835 12.9355 87.1489 12.978L85.1133 15.3846C85.0948 15.4068 85.0718 15.4248 85.0457 15.4372C85.0196 15.4497 84.9912 15.4564 84.9623 15.4568V15.4568Z" fill="black"/>
<path d="M78.4947 20.9723C78.4463 20.9725 78.3996 20.955 78.3633 20.923L77.2339 19.984C77.2128 19.9674 77.1955 19.9466 77.1831 19.9228C77.1706 19.899 77.1633 19.8729 77.1617 19.8461C77.1577 19.7913 77.1754 19.7371 77.2109 19.6951L79.299 17.2163C79.3156 17.1952 79.3365 17.1779 79.3603 17.1654C79.384 17.153 79.4102 17.1457 79.4369 17.1441C79.4639 17.1398 79.4916 17.1417 79.5177 17.1497C79.5439 17.1576 79.5679 17.1714 79.588 17.19L80.701 18.129C80.7219 18.1464 80.7393 18.1678 80.7519 18.192C80.7646 18.2161 80.7724 18.2425 80.7749 18.2697C80.7773 18.2968 80.7743 18.3242 80.7662 18.3502C80.758 18.3762 80.7448 18.4003 80.7272 18.4212L78.6391 20.8967C78.6214 20.9185 78.5995 20.9363 78.5746 20.9493C78.5498 20.9623 78.5226 20.9701 78.4947 20.9723V20.9723Z" fill="black"/>
<path d="M85.6777 20.8643C85.6451 20.8641 85.6129 20.8562 85.5839 20.8414C85.5548 20.8266 85.5296 20.8052 85.5102 20.779L83.7045 18.333C83.6881 18.3112 83.6764 18.2862 83.6702 18.2596C83.664 18.2331 83.6634 18.2055 83.6684 18.1787C83.672 18.1522 83.6808 18.1266 83.6944 18.1035C83.7079 18.0804 83.7258 18.0602 83.7472 18.0441L84.9193 17.1806C84.9409 17.164 84.9656 17.152 84.992 17.1452C85.0183 17.1383 85.0458 17.1369 85.0727 17.1409C85.0997 17.1448 85.1256 17.1542 85.1488 17.1683C85.1721 17.1825 85.1923 17.2012 85.2082 17.2233L87.0139 19.6725C87.0463 19.7158 87.0604 19.77 87.0533 19.8236C87.0432 19.8769 87.0141 19.9248 86.9712 19.9582L85.7992 20.8249C85.7638 20.8505 85.7213 20.8643 85.6777 20.8643V20.8643Z" fill="black"/>
<path d="M87.4447 28.8126C87.4765 28.8266 87.5044 28.8483 87.5256 28.8759C87.5468 28.9034 87.5608 28.9359 87.5661 28.9702C87.5713 29.005 87.5673 29.0405 87.5547 29.0733C87.542 29.1061 87.5211 29.1351 87.4939 29.1574L86.3842 30.0931C86.3207 30.1459 86.2436 30.1798 86.1617 30.1908C86.0798 30.2018 85.9965 30.1896 85.9213 30.1555L82.51 28.5598C82.4808 28.5461 82.4488 28.5389 82.4165 28.5389C82.3841 28.5389 82.3522 28.5461 82.3229 28.5598L81.0096 29.1344C80.4186 29.3905 79.8113 29.617 79.194 29.814L77.5623 30.3163C77.51 30.3328 77.4534 30.3279 77.4048 30.3027C77.3561 30.2774 77.3195 30.2339 77.3029 30.1817L76.9746 29.1344C76.9573 29.0803 76.9509 29.0233 76.9558 28.9667C76.9606 28.9101 76.9766 28.8551 77.0029 28.8047C77.0291 28.7543 77.0651 28.7097 77.1087 28.6733C77.1523 28.6369 77.2027 28.6095 77.2569 28.5927L79.0003 28.0411C79.3247 27.9396 79.6436 27.8212 79.9557 27.6865L80.307 27.5322L79.5322 27.1678L77.8052 26.3601C77.7795 26.348 77.7565 26.3307 77.7378 26.3092C77.7192 26.2877 77.7052 26.2626 77.6969 26.2353C77.6856 26.21 77.6797 26.1826 77.6797 26.1549C77.6797 26.1272 77.6856 26.0998 77.6969 26.0745L78.6589 24.3278C78.6762 24.2934 78.6844 24.2552 78.6828 24.2168C78.6813 24.1783 78.6699 24.1409 78.6499 24.1081C78.6298 24.0752 78.6018 24.048 78.5683 24.029C78.5348 24.01 78.4971 23.9999 78.4586 23.9995H77.3719C77.2569 23.9995 77.1467 23.9538 77.0654 23.8726C76.9841 23.7913 76.9385 23.6811 76.9385 23.5661V22.6862C76.9385 22.5713 76.9841 22.4611 77.0654 22.3798C77.1467 22.2985 77.2569 22.2528 77.3719 22.2528H79.7981L80.0838 21.7374C80.1018 21.7061 80.1276 21.68 80.1586 21.6616C80.1897 21.6432 80.225 21.6331 80.2611 21.6323H82.1029C82.1393 21.6325 82.175 21.6422 82.2064 21.6606C82.2379 21.679 82.2639 21.7053 82.2819 21.7369C82.2999 21.7686 82.3092 21.8044 82.3089 21.8408C82.3086 21.8772 82.2987 21.9129 82.2802 21.9442L82.0964 22.2528H87.0835C87.1985 22.2528 87.3087 22.2985 87.39 22.3798C87.4712 22.4611 87.5169 22.5713 87.5169 22.6862V24.1899C87.5169 24.271 87.501 24.3513 87.47 24.4262C87.4391 24.5011 87.3936 24.5692 87.3363 24.6266L86.3711 25.6115C85.7382 26.2622 85.0432 26.8493 84.2961 27.3648L87.4447 28.8126ZM80.55 25.7166L82.2868 26.4947C82.3219 26.5111 82.3608 26.5179 82.3994 26.5145C82.4381 26.511 82.4751 26.4974 82.5068 26.475L83.3801 25.8873C83.9475 25.5001 84.4773 25.0604 84.9626 24.5741L85.5273 23.9864H81.3675C81.2858 23.9853 81.2054 24.0061 81.1344 24.0465C81.0634 24.0869 81.0045 24.1455 80.9637 24.2162L80.3858 25.2011C80.3591 25.2449 80.342 25.2939 80.3359 25.3449C80.3297 25.3958 80.3346 25.4475 80.3502 25.4964C80.3657 25.5453 80.3916 25.5902 80.4261 25.6282C80.4606 25.6662 80.5028 25.6964 80.55 25.7166V25.7166Z" fill="black"/>
<path d="M93.5607 26.774L95.5307 28.9277C95.5686 28.9669 95.5898 29.0193 95.5898 29.0738C95.5898 29.1284 95.5686 29.1808 95.5307 29.2199L94.4505 30.2049C94.4323 30.2228 94.4108 30.237 94.3871 30.2466C94.3634 30.2561 94.3381 30.261 94.3126 30.2607V30.2607C94.2576 30.2564 94.2061 30.2318 94.1681 30.1918L91.8502 27.6342C91.8271 27.6088 91.799 27.5885 91.7676 27.5746C91.7362 27.5607 91.7023 27.5535 91.668 27.5535C91.6337 27.5535 91.5997 27.5607 91.5684 27.5746C91.537 27.5885 91.5089 27.6088 91.4858 27.6342L89.1252 30.1721C89.0872 30.2117 89.0355 30.2352 88.9807 30.2377C88.9262 30.2384 88.8734 30.2184 88.833 30.1819L87.7692 29.197C87.7492 29.1791 87.7331 29.1574 87.7218 29.1331C87.7105 29.1089 87.7043 29.0825 87.7035 29.0558C87.7017 29.0286 87.7058 29.0013 87.7154 28.9759C87.725 28.9504 87.74 28.9272 87.7594 28.908L89.6406 26.8856L90.3662 26.0156C90.3974 25.977 90.4144 25.9289 90.4144 25.8793C90.4144 25.8297 90.3974 25.7816 90.3662 25.7431L90.1298 25.4147C89.3947 24.4202 88.8757 23.2828 88.6064 22.0757L88.4521 21.383C88.3133 20.7555 88.2428 20.1148 88.242 19.4722V15.6473C88.2424 15.5917 88.2649 15.5386 88.3044 15.4995C88.323 15.4802 88.3455 15.465 88.3704 15.4548C88.3953 15.4446 88.422 15.4397 88.4488 15.4404H89.9066C89.9608 15.4413 90.0126 15.4635 90.0507 15.5022C90.0888 15.5409 90.1101 15.593 90.1101 15.6473V19.2588C90.1109 19.8749 90.178 20.4891 90.3104 21.0908L90.3662 21.3436C90.5855 22.3421 90.9849 23.2922 91.5449 24.1474C91.5586 24.1664 91.5766 24.1819 91.5974 24.1925C91.6182 24.2032 91.6413 24.2088 91.6647 24.2088C91.6881 24.2088 91.7112 24.2032 91.732 24.1925C91.7529 24.1819 91.7709 24.1664 91.7845 24.1474C92.3662 23.279 92.7856 22.3124 93.0223 21.2943L93.0486 21.1696C93.1994 20.5383 93.2755 19.8914 93.2751 19.2423V15.0202C93.2751 14.9819 93.2599 14.9451 93.2328 14.918C93.2057 14.8909 93.169 14.8757 93.1307 14.8757H88.4554C88.4005 14.8757 88.3479 14.8539 88.3091 14.8151C88.2703 14.7763 88.2486 14.7237 88.2486 14.6689V11.8946C88.2486 11.8397 88.2703 11.7871 88.3091 11.7483C88.3479 11.7095 88.4005 11.6877 88.4554 11.6877H89.9098C89.9647 11.6877 90.0173 11.7095 90.0561 11.7483C90.0949 11.7871 90.1167 11.8397 90.1167 11.8946V13.1455H94.9364C94.9913 13.1455 95.0439 13.1673 95.0827 13.2061C95.1214 13.2448 95.1432 13.2975 95.1432 13.3523V14.6656V19.3934C95.1436 20.0853 95.0643 20.7749 94.9068 21.4486L94.746 22.1414C94.4748 23.3083 93.9602 24.4048 93.2357 25.3589L92.9435 25.7431C92.9099 25.785 92.8916 25.8371 92.8916 25.8908C92.8916 25.9445 92.9099 25.9966 92.9435 26.0385L93.5607 26.774Z" fill="black"/>
<path d="M21 42C32.598 42 42 32.598 42 21C42 9.40202 32.598 0 21 0C9.40202 0 0 9.40202 0 21C0 32.598 9.40202 42 21 42Z" fill="#DA282A"/>
<path d="M30.5039 10.7552L10.2408 14.1521C10.0404 14.1849 9.85601 14.2818 9.71535 14.4283C9.5747 14.5747 9.48537 14.7629 9.46079 14.9645L9.2523 16.654C9.23433 16.7984 9.25018 16.9449 9.29859 17.0821C9.347 17.2193 9.42665 17.3433 9.53125 17.4445C9.63585 17.5456 9.76252 17.621 9.90127 17.6647C10.04 17.7084 10.187 17.7193 10.3307 17.6965L14.2848 17.035V31.0542C14.285 31.2245 14.3313 31.3915 14.4188 31.5376C14.5063 31.6836 14.6318 31.8032 14.7819 31.8836C14.932 31.964 15.1011 32.0022 15.2712 31.9942C15.4413 31.9861 15.606 31.9321 15.7479 31.8378L17.254 30.8637C17.432 30.7454 17.5781 30.5851 17.6797 30.3971C17.7812 30.2091 17.835 29.999 17.8363 29.7853V16.4419L23.2499 15.5361V25.3926C23.2495 25.9956 23.3976 26.5895 23.6813 27.1216L26.0861 31.6329C26.1541 31.7639 26.2576 31.8732 26.3847 31.9482C26.5118 32.0232 26.6575 32.0609 26.805 32.0571H28.8576C28.995 32.0578 29.1303 32.0232 29.2505 31.9566C29.3707 31.89 29.4718 31.7935 29.544 31.6766C29.6161 31.5596 29.6571 31.4261 29.6628 31.2888C29.6685 31.1515 29.6388 31.015 29.5765 30.8924L27.1609 26.2589C26.8943 25.7369 26.7551 25.1592 26.7547 24.573V14.9465L30.6082 14.2995C30.808 14.266 30.9915 14.1688 31.1315 14.0224C31.2714 13.876 31.3602 13.6882 31.3846 13.4871L31.5931 11.7976C31.6115 11.6522 31.5956 11.5045 31.5466 11.3664C31.4976 11.2282 31.4169 11.1035 31.311 11.0021C31.2051 10.9008 31.077 10.8256 30.9368 10.7828C30.7967 10.7399 30.6484 10.7304 30.5039 10.7552V10.7552Z" fill="white"/>
</svg>
