<svg width="152" height="72" viewBox="0 0 152 72" fill="none" xmlns="http://www.w3.org/2000/svg">
<path d="M57.9979 38.4434H55.4841L49.5138 28.8455V38.4434H47V24.7566H49.8776L55.4841 33.6872V24.7566H57.9979V38.4434Z" fill="#655E5E"/>
<path d="M74.8574 31.6C74.8574 32.5809 74.6699 33.5047 74.2951 34.3716C73.9312 35.2384 73.4296 35.9912 72.7901 36.6299C72.1506 37.2686 71.4064 37.7761 70.5574 38.1525C69.7085 38.5175 68.8044 38.7 67.8452 38.7C66.886 38.7 65.9764 38.5175 65.1164 38.1525C64.2674 37.7761 63.5232 37.2686 62.8837 36.6299C62.2443 35.9912 61.7371 35.2441 61.3622 34.3887C60.9984 33.5218 60.8165 32.5923 60.8165 31.6C60.8165 30.6077 60.9984 29.6782 61.3622 28.8113C61.7371 27.9445 62.2443 27.1917 62.8837 26.553C63.5232 25.9143 64.2674 25.4124 65.1164 25.0475C65.9764 24.6825 66.886 24.5 67.8452 24.5C68.8044 24.5 69.7085 24.6825 70.5574 25.0475C71.4064 25.4124 72.1506 25.92 72.7901 26.5701C73.4296 27.2088 73.9312 27.9616 74.2951 28.8284C74.6699 29.6839 74.8574 30.6077 74.8574 31.6ZM72.2774 31.6C72.2774 30.9727 72.1616 30.3853 71.9301 29.8378C71.6986 29.279 71.3788 28.7942 70.9709 28.3836C70.574 27.9616 70.1054 27.6308 69.5651 27.3913C69.0249 27.1404 68.4516 27.0149 67.8452 27.0149C67.2278 27.0149 66.6489 27.1404 66.1087 27.3913C65.5684 27.6308 65.0943 27.9616 64.6864 28.3836C64.2895 28.7942 63.9753 29.279 63.7437 29.8378C63.5122 30.3853 63.3964 30.9727 63.3964 31.6C63.3964 32.2159 63.5122 32.8033 63.7437 33.3622C63.9753 33.921 64.2895 34.4115 64.6864 34.8335C65.0943 35.2441 65.5684 35.5749 66.1087 35.8258C66.6489 36.0653 67.2278 36.1851 67.8452 36.1851C68.4516 36.1851 69.0249 36.0653 69.5651 35.8258C70.1054 35.5749 70.574 35.2441 70.9709 34.8335C71.3788 34.4115 71.6986 33.921 71.9301 33.3622C72.1616 32.8033 72.2774 32.2159 72.2774 31.6Z" fill="#655E5E"/>
<path d="M90.8738 38.4434H88.36V29.3075L84.1924 36.5786L80.1901 29.239V38.4434H77.6763V24.7566H80.5705L84.242 31.5487L88.0788 24.7566H90.8738V38.4434Z" fill="#655E5E"/>
<path d="M107.73 31.6C107.73 32.5809 107.543 33.5047 107.168 34.3716C106.804 35.2384 106.302 35.9912 105.663 36.6299C105.023 37.2686 104.279 37.7761 103.43 38.1525C102.581 38.5175 101.677 38.7 100.718 38.7C99.7588 38.7 98.8492 38.5175 97.9892 38.1525C97.1402 37.7761 96.396 37.2686 95.7565 36.6299C95.1171 35.9912 94.6099 35.2441 94.235 34.3887C93.8712 33.5218 93.6893 32.5923 93.6893 31.6C93.6893 30.6077 93.8712 29.6782 94.235 28.8113C94.6099 27.9445 95.1171 27.1917 95.7565 26.553C96.396 25.9143 97.1402 25.4124 97.9892 25.0475C98.8492 24.6825 99.7588 24.5 100.718 24.5C101.677 24.5 102.581 24.6825 103.43 25.0475C104.279 25.4124 105.023 25.92 105.663 26.5701C106.302 27.2088 106.804 27.9616 107.168 28.8284C107.543 29.6839 107.73 30.6077 107.73 31.6ZM105.15 31.6C105.15 30.9727 105.034 30.3853 104.803 29.8378C104.571 29.279 104.252 28.7942 103.844 28.3836C103.447 27.9616 102.978 27.6308 102.438 27.3913C101.898 27.1404 101.324 27.0149 100.718 27.0149C100.101 27.0149 99.5217 27.1404 98.9815 27.3913C98.4412 27.6308 97.9671 27.9616 97.5592 28.3836C97.1623 28.7942 96.8481 29.279 96.6165 29.8378C96.385 30.3853 96.2692 30.9727 96.2692 31.6C96.2692 32.2159 96.385 32.8033 96.6165 33.3622C96.8481 33.921 97.1623 34.4115 97.5592 34.8335C97.9671 35.2441 98.4412 35.5749 98.9815 35.8258C99.5217 36.0653 100.101 36.1851 100.718 36.1851C101.324 36.1851 101.898 36.0653 102.438 35.8258C102.978 35.5749 103.447 35.2441 103.844 34.8335C104.252 34.4115 104.571 33.921 104.803 33.3622C105.034 32.8033 105.15 32.2159 105.15 31.6Z" fill="#655E5E"/>
<path d="M48.989 44.8405H49.262L49.5285 44.47C49.5588 44.4223 49.5935 44.3985 49.6325 44.3985C49.6758 44.3985 49.7798 44.4808 49.9445 44.6455C50.1135 44.8058 50.198 44.912 50.198 44.964C50.198 45.016 50.1655 45.042 50.1005 45.042H48.989V45.848C49.2967 45.9347 49.5372 46.0278 49.7105 46.1275C49.8838 46.2272 49.9705 46.3528 49.9705 46.5045C49.9705 46.6562 49.9337 46.784 49.86 46.888C49.7907 46.9877 49.7235 47.0375 49.6585 47.0375C49.5978 47.0375 49.5545 47.0245 49.5285 46.9985C49.5068 46.9725 49.483 46.9183 49.457 46.836C49.3357 46.446 49.1797 46.1557 48.989 45.965V48.929C48.989 48.968 48.9695 49.0005 48.9305 49.0265C48.8958 49.0525 48.8178 49.0893 48.6965 49.137C48.5752 49.189 48.4993 49.215 48.469 49.215C48.443 49.215 48.43 49.1912 48.43 49.1435L48.4365 48.838C48.4452 48.63 48.4495 48.4415 48.4495 48.2725V46.394C48.1635 47.0873 47.7562 47.6875 47.2275 48.1945L47.1365 48.123C47.7258 47.1523 48.131 46.1253 48.352 45.042H47.7865C47.6738 45.042 47.5807 45.0528 47.507 45.0745L47.3965 44.808C47.4875 44.8297 47.5958 44.8405 47.7215 44.8405H48.4495V43.9435C48.4495 43.6575 48.443 43.4105 48.43 43.2025C48.742 43.2935 48.9608 43.3628 49.0865 43.4105C49.2122 43.4582 49.275 43.4972 49.275 43.5275C49.275 43.5665 49.1797 43.6337 48.989 43.729V44.8405ZM50.9195 43.9435H52.2455L52.434 43.664C52.4643 43.6207 52.4925 43.599 52.5185 43.599C52.5445 43.599 52.603 43.6315 52.694 43.6965C52.785 43.7615 52.8803 43.8352 52.98 43.9175C53.084 43.9955 53.136 44.0453 53.136 44.067C53.136 44.106 53.0537 44.1753 52.889 44.275V48.2855C52.889 48.5108 52.8912 48.6582 52.8955 48.7275L52.902 48.9095C52.902 48.9268 52.8998 48.9398 52.8955 48.9485C52.8912 48.9615 52.8478 48.994 52.7655 49.046C52.6875 49.098 52.5987 49.1413 52.499 49.176C52.3993 49.215 52.3387 49.2345 52.317 49.2345C52.2997 49.2345 52.291 49.2085 52.291 49.1565V48.526H50.848V48.916C50.848 48.955 50.8437 48.981 50.835 48.994C50.8263 49.007 50.7895 49.0308 50.7245 49.0655C50.6638 49.1045 50.575 49.1435 50.458 49.1825C50.3453 49.2215 50.2803 49.241 50.263 49.241C50.25 49.241 50.2457 49.2193 50.25 49.176C50.2717 48.9637 50.2825 48.747 50.2825 48.526V44.1775C50.2825 43.9955 50.276 43.8113 50.263 43.625C50.5317 43.729 50.7505 43.8352 50.9195 43.9435ZM52.291 45.406V44.158H50.848V45.406H52.291ZM52.291 46.8555V45.614H50.848V46.8555H52.291ZM52.291 48.318V47.0635H50.848V48.318H52.291ZM62.1645 44.8015H62.4375L62.6585 44.431C62.6975 44.3703 62.7343 44.34 62.769 44.34C62.808 44.34 62.9098 44.4288 63.0745 44.6065C63.2392 44.7798 63.3215 44.8925 63.3215 44.9445C63.3215 44.9922 63.2738 45.016 63.1785 45.016H62.1645V45.692C62.4982 45.7743 62.7473 45.8653 62.912 45.965C63.0767 46.0603 63.159 46.1708 63.159 46.2965C63.159 46.4178 63.1265 46.5283 63.0615 46.628C63.0008 46.7233 62.9272 46.771 62.8405 46.771C62.8058 46.771 62.7777 46.758 62.756 46.732C62.7387 46.706 62.7148 46.6605 62.6845 46.5955C62.5328 46.2662 62.3595 46.0127 62.1645 45.835V48.8575C62.1645 48.9268 62.1472 48.9745 62.1125 49.0005C62.0778 49.0308 61.9998 49.0698 61.8785 49.1175C61.7615 49.1652 61.6835 49.189 61.6445 49.189C61.6098 49.189 61.5925 49.163 61.5925 49.111L61.6055 48.7535C61.6098 48.6062 61.612 48.4415 61.612 48.2595V46.329C61.3217 46.8273 60.9143 47.3365 60.39 47.8565L60.286 47.7525C60.6197 47.3018 60.8732 46.8707 61.0465 46.459C61.2242 46.0473 61.378 45.5663 61.508 45.016H60.871C60.7583 45.016 60.6652 45.0268 60.5915 45.0485L60.481 44.769C60.572 44.7907 60.6803 44.8015 60.806 44.8015H61.612V44.015C61.612 43.729 61.6055 43.482 61.5925 43.274C62.1255 43.3953 62.392 43.4907 62.392 43.56C62.392 43.599 62.3162 43.6597 62.1645 43.742V44.8015ZM64.043 44.041C64.0473 44.509 64.0387 45.0463 64.017 45.653C63.9953 46.2597 63.9693 46.6713 63.939 46.888C63.9087 47.1047 63.8567 47.3105 63.783 47.5055C63.7093 47.6962 63.6097 47.8782 63.484 48.0515C63.3627 48.2205 63.2088 48.3895 63.0225 48.5585C62.8405 48.7318 62.6152 48.9203 62.3465 49.124L62.2555 49.0005C62.6238 48.6408 62.8947 48.305 63.068 47.993C63.2413 47.681 63.354 47.33 63.406 46.94C63.4623 46.55 63.4905 45.9823 63.4905 45.237C63.4905 44.4873 63.4732 43.9153 63.4385 43.521C63.6768 43.586 63.9195 43.6857 64.1665 43.82H64.6345L64.823 43.534C64.8533 43.4863 64.8858 43.4625 64.9205 43.4625C64.9508 43.4625 65.0267 43.5037 65.148 43.586C65.2693 43.6683 65.3668 43.7398 65.4405 43.8005C65.5142 43.8612 65.551 43.9132 65.551 43.9565C65.551 43.9998 65.4513 44.0822 65.252 44.2035V48.162C65.252 48.227 65.2737 48.266 65.317 48.279C65.3603 48.292 65.4838 48.2985 65.6875 48.2985C65.7872 48.2985 65.8565 48.2747 65.8955 48.227C65.9388 48.1837 65.9757 48.0732 66.006 47.8955C66.0407 47.7135 66.0883 47.369 66.149 46.862H66.3245C66.3028 47.161 66.292 47.4015 66.292 47.5835C66.292 47.7612 66.305 47.9042 66.331 48.0125C66.3613 48.1165 66.4328 48.201 66.5455 48.266C66.5888 48.2963 66.6105 48.3267 66.6105 48.357C66.6105 48.3917 66.5715 48.4697 66.4935 48.591C66.4155 48.7167 66.3223 48.7947 66.214 48.825C66.11 48.8597 65.8955 48.877 65.5705 48.877C65.2455 48.877 65.0137 48.851 64.875 48.799C64.7407 48.7513 64.6735 48.6257 64.6735 48.422V44.041H64.043ZM77.576 46.095V45.406C77.576 45.2153 77.5695 45.0355 77.5565 44.8665C77.7212 44.9012 77.8685 44.9358 77.9985 44.9705C78.1328 45.0052 78.213 45.029 78.239 45.042C78.265 45.055 78.278 45.0767 78.278 45.107C78.278 45.133 78.2238 45.1742 78.1155 45.2305V46.095H78.5315L78.7915 45.757C78.8218 45.7137 78.8543 45.692 78.889 45.692C78.9237 45.692 79.0017 45.7397 79.123 45.835L79.422 46.0755C79.5043 46.1405 79.5455 46.1968 79.5455 46.2445C79.5455 46.2878 79.5 46.3095 79.409 46.3095H78.1155V48.617C78.1155 48.7643 78.083 48.8662 78.018 48.9225C77.9573 48.9832 77.862 49.0352 77.732 49.0785C77.602 49.1262 77.5132 49.15 77.4655 49.15C77.4178 49.15 77.3897 49.1197 77.381 49.059C77.355 48.9247 77.2987 48.8228 77.212 48.7535C77.1253 48.6885 76.9412 48.617 76.6595 48.539L76.6725 48.4155C77.0018 48.4545 77.2207 48.474 77.329 48.474C77.4417 48.474 77.511 48.4632 77.537 48.4415C77.563 48.4198 77.576 48.383 77.576 48.331V46.3095H76.718C76.6487 46.4135 76.5945 46.4655 76.5555 46.4655C76.5208 46.4655 76.4298 46.4157 76.2825 46.316C76.1352 46.2163 76.0463 46.1492 76.016 46.1145C76.1027 46.0712 76.1698 46.03 76.2175 45.991C76.2652 45.9477 76.3063 45.8935 76.341 45.8285C76.3757 45.7635 76.4493 45.5923 76.562 45.315C76.679 45.0377 76.783 44.7647 76.874 44.496H76.354C76.237 44.496 76.146 44.5112 76.081 44.5415L75.964 44.275C76.055 44.2967 76.1633 44.3075 76.289 44.3075H76.939C77.0647 43.9132 77.1643 43.547 77.238 43.209C77.368 43.248 77.5175 43.3 77.6865 43.365C77.8555 43.43 77.953 43.4712 77.979 43.4885C78.005 43.5015 78.018 43.5232 78.018 43.5535C78.018 43.5795 77.9768 43.6033 77.8945 43.625C77.8122 43.6467 77.7515 43.7052 77.7125 43.8005L77.498 44.3075H78.5835L78.8565 43.8915C78.8868 43.8482 78.9128 43.8265 78.9345 43.8265C78.9692 43.8265 79.0883 43.9175 79.292 44.0995C79.5 44.2772 79.604 44.3877 79.604 44.431C79.604 44.4743 79.5628 44.496 79.4805 44.496H77.42L76.757 46.095H77.576ZM74.69 43.6965H75.366L75.5155 43.4495C75.5415 43.4148 75.5675 43.3975 75.5935 43.3975C75.6238 43.3975 75.7343 43.4647 75.925 43.599C76.12 43.729 76.2175 43.807 76.2175 43.833C76.2175 43.859 76.185 43.8828 76.12 43.9045C76.0593 43.9262 76.0073 43.9587 75.964 44.002C75.925 44.0453 75.8253 44.197 75.665 44.457C75.5047 44.7127 75.3183 45.0268 75.106 45.3995C75.4007 45.5728 75.6195 45.7505 75.7625 45.9325C75.9055 46.1145 75.977 46.3485 75.977 46.6345C75.977 46.9898 75.8773 47.2368 75.678 47.3755C75.483 47.5142 75.3552 47.5835 75.2945 47.5835C75.2382 47.5835 75.2078 47.5488 75.2035 47.4795C75.1992 47.3582 75.1537 47.2607 75.067 47.187C74.9847 47.1133 74.8547 47.0527 74.677 47.005V46.8945C74.8287 46.9162 74.963 46.927 75.08 46.927C75.2013 46.927 75.2923 46.901 75.353 46.849C75.4137 46.797 75.444 46.6908 75.444 46.5305C75.444 46.3702 75.3963 46.1838 75.301 45.9715C75.2057 45.7548 75.0757 45.5772 74.911 45.4385C75.1667 44.7105 75.3292 44.1883 75.3985 43.872H74.599V48.89C74.599 48.942 74.5838 48.9767 74.5535 48.994C74.5232 49.0157 74.4473 49.0482 74.326 49.0915C74.2047 49.1348 74.1288 49.1565 74.0985 49.1565C74.0725 49.1565 74.0595 49.1435 74.0595 49.1175L74.0725 48.812C74.0812 48.682 74.0855 48.4827 74.0855 48.214V44.0735C74.0855 43.7615 74.0768 43.534 74.0595 43.391C74.3282 43.5037 74.5383 43.6055 74.69 43.6965ZM76.6985 46.6345C76.8632 46.7255 77.0018 46.8078 77.1145 46.8815C77.2315 46.9552 77.2965 47.0007 77.3095 47.018C77.3225 47.0353 77.329 47.0548 77.329 47.0765C77.329 47.1242 77.2922 47.148 77.2185 47.148C77.1925 47.148 77.16 47.1588 77.121 47.1805C77.082 47.1978 77.056 47.2173 77.043 47.239C76.64 47.7503 76.3367 48.0927 76.133 48.266C75.9337 48.4393 75.6802 48.6235 75.3725 48.8185L75.288 48.7275C75.5957 48.4242 75.8535 48.1187 76.0615 47.811C76.2738 47.499 76.4862 47.1068 76.6985 46.6345ZM78.3495 46.641C79.1425 47.1957 79.539 47.6355 79.539 47.9605C79.539 48.1208 79.5022 48.2465 79.4285 48.3375C79.3592 48.4328 79.2747 48.4805 79.175 48.4805C79.1273 48.4805 79.0927 48.4632 79.071 48.4285C79.0493 48.3982 79.0298 48.3505 79.0125 48.2855C78.8868 47.8262 78.7655 47.4903 78.6485 47.278C78.5358 47.0657 78.4123 46.8815 78.278 46.7255L78.3495 46.641ZM91.8695 43.3065C92.0298 43.3368 92.1858 43.3737 92.3375 43.417C92.4935 43.4603 92.591 43.4907 92.63 43.508C92.669 43.5253 92.6885 43.5492 92.6885 43.5795C92.6885 43.6098 92.6105 43.6662 92.4545 43.7485V48.3375C92.4545 48.5758 92.4133 48.7427 92.331 48.838C92.253 48.9333 92.1295 49.0157 91.9605 49.085C91.7958 49.1543 91.6897 49.189 91.642 49.189C91.5987 49.189 91.5727 49.1543 91.564 49.085C91.5467 48.9637 91.512 48.8683 91.46 48.799C91.4123 48.7297 91.3257 48.6647 91.2 48.604C91.0743 48.5477 90.8837 48.4827 90.628 48.409L90.6605 48.2855C91.1458 48.3808 91.447 48.4285 91.564 48.4285C91.6853 48.4285 91.7677 48.4112 91.811 48.3765C91.8587 48.3462 91.8825 48.2638 91.8825 48.1295V43.885C91.8825 43.6683 91.8782 43.4755 91.8695 43.3065ZM88.47 45.354C88.3963 45.5013 88.3205 45.64 88.2425 45.77C88.4332 45.9347 88.5783 46.1015 88.678 46.2705C88.782 46.4352 88.834 46.5782 88.834 46.6995C88.834 46.8165 88.795 46.9183 88.717 47.005C88.639 47.0917 88.5458 47.135 88.4375 47.135C88.3292 47.135 88.275 47.0743 88.275 46.953C88.275 46.914 88.2815 46.8555 88.2945 46.7775C88.3075 46.6995 88.314 46.6215 88.314 46.5435C88.314 46.3355 88.2642 46.1167 88.1645 45.887C87.8915 46.329 87.4885 46.8078 86.9555 47.3235L86.858 47.2325C87.2567 46.7125 87.573 46.2077 87.807 45.718C88.041 45.2283 88.236 44.6542 88.392 43.9955H87.3585C87.2458 43.9955 87.1527 44.0063 87.079 44.028L86.9685 43.7615C87.0595 43.7832 87.1678 43.794 87.2935 43.794H89.5685L89.861 43.456C89.9043 43.4083 89.9412 43.3845 89.9715 43.3845C90.0018 43.3845 90.0603 43.4213 90.147 43.495L90.4395 43.7485C90.5478 43.8395 90.602 43.9045 90.602 43.9435C90.602 43.9782 90.5543 43.9955 90.459 43.9955H89.029C88.886 44.4245 88.7343 44.808 88.574 45.146H89.315L89.4775 44.925C89.5078 44.886 89.5382 44.8665 89.5685 44.8665C89.6032 44.8665 89.6877 44.9033 89.822 44.977C89.9607 45.0463 90.0625 45.1005 90.1275 45.1395C90.1968 45.1785 90.2315 45.2153 90.2315 45.25C90.2315 45.2803 90.1968 45.3128 90.1275 45.3475C90.0625 45.3778 90.017 45.4125 89.991 45.4515C89.965 45.4905 89.939 45.5663 89.913 45.679C89.7657 46.303 89.5858 46.81 89.3735 47.2C89.1612 47.59 88.8622 47.928 88.4765 48.214C88.0952 48.5 87.5708 48.7665 86.9035 49.0135L86.871 48.916C87.6467 48.4827 88.2382 47.9778 88.6455 47.4015C89.0528 46.8208 89.2998 46.1383 89.3865 45.354H88.47ZM90.628 44.2165C91.0917 44.3248 91.3235 44.4158 91.3235 44.4895C91.3235 44.5285 91.2715 44.5675 91.1675 44.6065V46.7255L91.1805 47.2975C91.1805 47.3452 91.1675 47.3798 91.1415 47.4015C91.1198 47.4188 91.0505 47.4448 90.9335 47.4795C90.8208 47.5142 90.7342 47.5315 90.6735 47.5315C90.6432 47.5315 90.628 47.499 90.628 47.434L90.641 46.6865V44.7365C90.641 44.5415 90.6367 44.3682 90.628 44.2165ZM100.963 44.6455C100.725 45.1438 100.43 45.5945 100.079 45.9975L99.9685 45.9065C100.41 45.1482 100.722 44.2447 100.904 43.196C101.238 43.3173 101.44 43.3975 101.509 43.4365C101.583 43.4755 101.619 43.5102 101.619 43.5405C101.619 43.5708 101.58 43.599 101.502 43.625C101.429 43.651 101.366 43.7247 101.314 43.846L101.054 44.444H101.743L101.879 44.21C101.91 44.158 101.936 44.132 101.957 44.132C101.983 44.132 102.035 44.1623 102.113 44.223C102.191 44.2837 102.278 44.3552 102.373 44.4375C102.469 44.5198 102.516 44.5762 102.516 44.6065C102.516 44.6368 102.464 44.6585 102.36 44.6715C102.256 44.6802 102.163 44.7213 102.081 44.795C101.999 44.8687 101.856 45.0507 101.652 45.341L101.535 45.2955C101.652 44.9835 101.719 44.7668 101.736 44.6455H100.963ZM104.07 44.2945C103.927 43.8005 103.756 43.4668 103.556 43.2935L103.602 43.196C103.771 43.2437 103.938 43.3108 104.102 43.3975C104.271 43.4798 104.382 43.5557 104.434 43.625C104.486 43.69 104.512 43.7658 104.512 43.8525C104.512 43.9348 104.484 44.0172 104.427 44.0995C104.371 44.1818 104.293 44.2468 104.193 44.2945H105.259L105.461 44.028C105.496 43.9847 105.526 43.963 105.552 43.963C105.582 43.963 105.623 43.9868 105.675 44.0345C105.732 44.0822 105.808 44.1537 105.903 44.249C105.998 44.3443 106.063 44.4158 106.098 44.4635C106.133 44.5068 106.15 44.548 106.15 44.587C106.15 44.6217 106.135 44.6477 106.104 44.665C106.078 44.678 106.013 44.6845 105.909 44.6845C105.81 44.6845 105.697 44.7213 105.571 44.795C105.446 44.8687 105.298 44.9813 105.129 45.133C105.307 45.2457 105.396 45.3237 105.396 45.367C105.396 45.406 105.324 45.458 105.181 45.523V45.8675C105.181 46.0755 105.184 46.2228 105.188 46.3095L105.194 46.5565C105.194 46.5912 105.179 46.6172 105.149 46.6345C105.119 46.6518 105.045 46.6757 104.928 46.706C104.815 46.7363 104.733 46.7515 104.681 46.7515C104.655 46.7515 104.642 46.7277 104.642 46.68V46.433H103.335V47.1805H104.778L104.941 46.966C104.971 46.927 104.999 46.9075 105.025 46.9075C105.051 46.9075 105.153 46.9638 105.331 47.0765C105.509 47.1892 105.597 47.2693 105.597 47.317C105.597 47.3777 105.517 47.4253 105.357 47.46V48.227L105.37 48.903C105.37 48.929 105.363 48.9463 105.35 48.955C105.342 48.968 105.303 48.9918 105.233 49.0265C105.168 49.0655 105.095 49.0958 105.012 49.1175C104.934 49.1435 104.882 49.1565 104.856 49.1565C104.835 49.1565 104.824 49.124 104.824 49.059V48.5585H103.335V49.0655C103.335 49.1132 103.316 49.1478 103.277 49.1695C103.242 49.1955 103.173 49.2237 103.069 49.254C102.965 49.2887 102.885 49.306 102.828 49.306C102.802 49.306 102.789 49.2973 102.789 49.28C102.789 49.2627 102.794 49.1673 102.802 48.994C102.815 48.8207 102.822 48.5238 102.822 48.1035V45.8545C102.822 45.6725 102.818 45.445 102.809 45.172C102.701 45.3757 102.562 45.4775 102.393 45.4775C102.315 45.4775 102.25 45.4558 102.198 45.4125C102.15 45.3692 102.126 45.315 102.126 45.25C102.126 45.1503 102.189 45.0528 102.315 44.9575C102.558 44.7755 102.709 44.457 102.77 44.002H102.9C102.917 44.145 102.928 44.2425 102.932 44.2945H104.07ZM104.98 45.0355C105.14 44.7842 105.236 44.6022 105.266 44.4895H102.952C102.961 44.6802 102.943 44.8405 102.9 44.9705C103.091 45.0572 103.262 45.1482 103.413 45.2435H104.59L104.733 45.016C104.763 44.9683 104.794 44.9445 104.824 44.9445C104.854 44.9445 104.906 44.9748 104.98 45.0355ZM103.335 46.225H104.642V45.445H103.335V46.225ZM103.335 48.3635H104.824V47.3755H103.335V48.3635ZM100.917 47.9865V45.9C100.917 45.679 100.911 45.4753 100.898 45.289C101.206 45.3627 101.398 45.4168 101.476 45.4515C101.559 45.4862 101.6 45.523 101.6 45.562C101.6 45.5967 101.541 45.6552 101.424 45.7375V48.032L102.542 47.0765L102.653 47.174C102.12 47.7893 101.769 48.2032 101.6 48.4155C101.435 48.6322 101.316 48.8163 101.242 48.968C101.216 49.02 101.193 49.046 101.171 49.046C101.154 49.046 101.134 49.0373 101.112 49.02C101.095 49.007 101.032 48.9442 100.924 48.8315C100.82 48.7188 100.722 48.6105 100.631 48.5065C100.718 48.4242 100.787 48.3332 100.839 48.2335C100.891 48.1338 100.917 48.0515 100.917 47.9865Z" fill="#655E5E"/>
</svg>
