<svg enable-background="new 0 0 18 16" viewBox="0 0 18 16" xmlns="http://www.w3.org/2000/svg"><path d="m3.085 13.721 2.305 2.075s.166.164.34 0 1.962-1.87 1.962-1.87l8.378-.005s1.773-.051 1.768-1.605c0 0-.005-4.65 0-4.666.005-.015 0-3.971 0-3.971s.029-.097-.114-.206l-1.448-1.322-1.748-1.571s-.371-.446-1.216-.446h-11.532s-1.594-.129-1.605 1.445l-.016 4.286v3.809s.078 1.523 1.717 1.519h1.22z"/><path d="m14.392 1.745s-.079-.884-1.035-.894l-5.141-.046-6.35-.061s-.973-.095-.976.857v4.259 3.78s.082.83.944.83 1.588.002 1.588.002.29-.031.286.329v1.766l.012-.007 2.204-2.195s.055.132.214.129c.158-.003 1.707 0 1.707 0h5.506s.978.051 1.041-.908v-1.38l-.003.09z" fill="#fff"/></svg>