<svg enable-background="new 0 0 30 30" viewBox="0 0 30 30" xmlns="http://www.w3.org/2000/svg"><circle cx="15" cy="15" fill="none" r="15"/><path d="m15 30c-8.3 0-15-6.7-15-15s6.7-15 15-15 15 6.7 15 15-6.7 15-15 15zm0-29c-7.7 0-14 6.3-14 14s6.3 14 14 14 14-6.3 14-14-6.3-14-14-14z" fill="#ccc"/><path d="m7.1 0v2.3c-.6 0-1.2 0-1.7 0s-.8.4-.8.8v2.1h2.4l-.4 2.5h-1.8c-.2 0-.3 0-.3.3v6.3h-2.6v-6.6h-2.2v-2.5h2.2v-.3c0-.7 0-1.4 0-2.2.1-1.3.9-2.3 2.2-2.6.2-.1.5-.1.7-.2h.7c.5 0 1.1 0 1.6.1z" fill="#4e4e4e" transform="translate(11.644 7.932)"/><circle cx="51.4" cy="98.1" fill="#efefef" r="12.5"/><path d="m51.4 110.6c-6.9 0-12.5-5.6-12.5-12.5s5.6-12.5 12.5-12.5 12.5 5.6 12.5 12.5c0 6.8-5.7 12.5-12.5 12.5z" fill="#efefef"/><path d="m42.8 84.2v1.9c-.5 0-1 0-1.5 0-.4 0-.7.3-.7.7v1.7h2l-.3 2.1h-1.6c-.2 0-.2 0-.2.2v5.2h-2.2v-5.4h-1.8v-2.1h1.8v-.3c0-.6 0-1.2 0-1.8 0-1.1.8-1.9 1.8-2.2.2-.1.4-.1.6-.1h.6c.6.1 1.1.1 1.5.1z" fill="#4e4e4e" transform="translate(11.644 7.932)"/><circle cx="15" cy="98.1" fill="none" r="12.5"/><path d="m15 110.6c-6.9 0-12.5-5.6-12.5-12.5s5.6-12.5 12.5-12.5 12.5 5.6 12.5 12.5c0 6.8-5.6 12.5-12.5 12.5zm0-24.2c-6.4 0-11.7 5.2-11.7 11.7s5.2 11.7 11.7 11.7 11.7-5.2 11.7-11.7-5.3-11.7-11.7-11.7z" fill="#ccc"/><path d="m6.5 84.2v1.9c-.5 0-1 0-1.5 0-.4 0-.7.3-.7.7v1.7h2.1l-.3 2.1h-1.6c-.2 0-.2 0-.2.2v5.2h-2.2v-5.4h-1.8v-2.1h1.8v-.3c0-.6 0-1.2 0-1.8 0-1.1.8-1.9 1.8-2.2.2-.1.4-.1.6-.1h.6c.5.1.9.1 1.4.1z" fill="#4e4e4e" transform="translate(11.644 7.932)"/></svg>