<svg width="180" height="180" version="1.1" xmlns="http://www.w3.org/2000/svg">
<style type="text/css">
svg {background-color:#fff}
#eye {fill:#fff}
#fg {fill:#1d1d1b}
@media (prefers-color-scheme: dark) {
svg {background-color:#353535}
#eye {fill:#1d1d1b}
#fg {fill:#fff}
}</style>
<path id="fg" d="m 92.597656,21.521484 c -7.411569,0.09519 -14.634284,1.4258 -21.855468,3.990235 -5.605794,2.091355 -10.7373,5.415426 -15.488282,9.691406 -4.655789,4.371172 -8.361406,9.787953 -11.117187,16.34375 -0.950004,2.37501 -1.51962,5.511522 -1.900391,9.3125 -0.379809,3.800016 -0.568359,7.220841 -0.568359,10.355469 0,3.136552 -0.09519,4.751472 0,4.845703 -3.512467,2.408075 -6.935345,4.944288 -10.261719,7.603515 -3.89617,2.946168 -7.698512,6.556052 -11.404297,10.832032 -3.670629,4.2993 -7.005941,8.873926 -9.976562,13.683596 -2.7548199,4.55866 -4.3697692,7.98001 -5.0351566,10.45117 -0.2855781,0.95001 -0.096458,3.70503 0.8554687,8.26562 0.8538499,4.46637 3.1345688,9.59691 6.9355469,15.48829 3.800977,5.8904 9.882056,11.21196 18.148438,16.15429 0.09615,0.0942 0.286206,-0.0948 0.666015,-0.47461 l 0.570313,-0.57031 c -0.09519,-0.0942 -1.140498,-1.14154 -2.945313,-3.32617 -1.805777,-2.0904 -3.611171,-4.8459 -5.226562,-8.17188 -1.711547,-3.32693 -2.374971,-6.93727 -2.185547,-10.54882 0.284616,-5.03464 3.514456,-9.68987 9.691406,-13.9668 6.175988,-4.27599 16.628032,-7.98013 31.451172,-11.02149 4.180787,-1.04423 7.887848,-2.66061 11.023437,-4.9414 3.134629,-2.18558 4.749068,-3.42047 4.939453,-3.70508 -1.140389,11.87697 0.951269,22.61429 6.271485,32.30664 4.561557,8.17118 10.357452,15.58237 17.673833,22.04297 l 68.79296,-68.603516 0.0957,-0.378906 c -3.74193,3.121492 -7.57565,6.13128 -11.4961,9.02539 -5.89137,4.466372 -11.97344,8.648272 -18.15039,12.638672 -6.17599,3.99041 -11.68507,6.7474 -16.53125,8.45703 -4.84617,1.71154 -8.07847,1.42481 -9.78906,-0.95117 -1.61539,-2.85097 -1.70869,-7.12467 -0.18945,-12.73047 1.42597,-5.605788 3.51519,-11.308357 6.17578,-17.294921 2.6606,-5.41637 4.94179,-11.023114 6.8418,-16.628907 1.9,-5.605793 2.85008,-11.307337 2.75585,-17.103515 -0.0952,-5.700986 -1.80635,-11.401087 -5.22656,-17.197266 -3.0404,-4.655789 -7.50658,-8.173307 -13.49219,-10.453125 -5.98656,-2.375009 -12.63726,-3.515115 -20.048824,-3.419922 z"/>
<path id="eye" d="m 72.167969,52.496094 0.0957,0.951172 c -0.190385,0.189423 -0.760483,1.709572 -1.806641,4.560546 -1.045197,2.850975 -2.18431,5.703233 -3.230469,8.648438 -1.045195,2.850012 -1.614753,4.559644 -1.708984,4.939453 0.189424,0.285578 0.854713,1.140379 1.994141,2.375 1.140389,1.14039 1.80667,1.997145 1.996093,2.376953 0.09519,0.665388 -0.284851,2.37505 -1.140624,4.941406 -0.855774,2.565397 -2.565464,4.464148 -5.13086,5.794922 -3.325976,1.234621 -6.462488,1.519385 -9.3125,0.759766 -2.850973,-0.759618 -5.225474,-1.70922 -7.03125,-2.849609 -1.804816,-1.235582 -2.660666,-1.80667 -2.755859,-1.996094 z" /></svg>
