<svg enable-background="new 0 0 30 30" viewBox="0 0 30 30" xmlns="http://www.w3.org/2000/svg"><circle cx="51.4" cy="98.1" fill="#efefef" r="12.5"/><path d="m51.4 110.6c-6.9 0-12.5-5.6-12.5-12.5s5.6-12.5 12.5-12.5 12.5 5.6 12.5 12.5c0 6.8-5.7 12.5-12.5 12.5z" fill="#efefef"/><path d="m42.8 84.2v1.9c-.5 0-1 0-1.5 0-.4 0-.7.3-.7.7v1.7h2l-.3 2.1h-1.6c-.2 0-.2 0-.2.2v5.2h-2.2v-5.4h-1.8v-2.1h1.8v-.3c0-.6 0-1.2 0-1.8 0-1.1.8-1.9 1.8-2.2.2-.1.4-.1.6-.1h.6c.6.1 1.1.1 1.5.1z" fill="#4e4e4e" transform="translate(11.644 7.932)"/><circle cx="15" cy="98.1" fill="none" r="12.5"/><path d="m15 110.6c-6.9 0-12.5-5.6-12.5-12.5s5.6-12.5 12.5-12.5 12.5 5.6 12.5 12.5c0 6.8-5.6 12.5-12.5 12.5zm0-24.2c-6.4 0-11.7 5.2-11.7 11.7s5.2 11.7 11.7 11.7 11.7-5.2 11.7-11.7-5.3-11.7-11.7-11.7z" fill="#ccc"/><path d="m6.5 84.2v1.9c-.5 0-1 0-1.5 0-.4 0-.7.3-.7.7v1.7h2.1l-.3 2.1h-1.6c-.2 0-.2 0-.2.2v5.2h-2.2v-5.4h-1.8v-2.1h1.8v-.3c0-.6 0-1.2 0-1.8 0-1.1.8-1.9 1.8-2.2.2-.1.4-.1.6-.1h.6c.5.1.9.1 1.4.1z" fill="#4e4e4e" transform="translate(11.644 7.932)"/><circle cx="15" cy="15" fill="none" r="15"/><path d="m15 30c-8.3 0-15-6.7-15-15s6.7-15 15-15 15 6.7 15 15-6.7 15-15 15zm0-29c-7.7 0-14 6.3-14 14s6.3 14 14 14 14-6.3 14-14-6.3-14-14-14z" fill="#ccc"/><path d="m-56.2 4.9c0-.6-.4-1.1-1-1.4s-1.3-.2-1.8.3c-.1 0-.1 0-.2 0-1-.6-2.1-1-3.2-1.1-.2 0-.3 0-.4 0 .3-.8.5-1.6.8-2.4h.2c.6.1 1.2.3 1.8.4.1 0 .2.1.2.2.1.6.7 1 1.4.9s1.1-.7 1-1.4c0-.2-.1-.3-.1-.4-.4-.6-1.2-.8-1.8-.4-.1.1-.2.1-.3.2s-.1.1-.2.1c-.8-.2-1.5-.3-2.4-.5-.2-.1-.5 0-.6.2v.1c-.3.9-.5 1.8-.8 2.7 0 .1 0 .2-.2.2-.5 0-1 .1-1.6.2-.9.2-1.8.6-2.6 1.1-.1 0-.1 0-.2 0-.3-.1-.5-.3-.8-.4-.8-.2-1.7.3-1.9 1.2v.7c.1.5.4.9.8 1.2.1 0 .1.1.1.2-.1.7 0 1.4.2 2 .4.9 1.1 1.6 2 2.1 1 .6 2.1.9 3.2 1.1 1 .1 2 .1 2.9-.1 1.4-.3 2.6-1 3.6-2 .7-.8 1.1-1.9.9-3 0-.2 0-.2.2-.3.5-.6.8-1.1.8-1.7zm-10.5 1.5c0-.6.4-1 1-1s1 .4 1 1-.4 1-1 1-1-.5-1-1zm5.7 2.8c-.1.1-.3.3-.5.4-.5.3-1 .4-1.5.5-.2 0-.3 0-.4 0-.8 0-1.6-.2-2.3-.7-.1 0-.1-.1-.2-.2s-.1-.3 0-.4.3-.2.5-.1c.3.2.7.4 1.1.5.9.2 1.9 0 2.7-.5.1-.1.3-.1.5 0 .1.2.2.3.1.5zm-.2-1.8c-.5 0-1-.5-1-1s.5-1 1-1 1 .5 1 1c-.1.5-.5.9-1 1z" fill="#4e4e4e" transform="translate(78.521 9.43)"/></svg>