<svg enable-background="new 0 0 20 20" viewBox="0 0 20 20" xmlns="http://www.w3.org/2000/svg"><path d="m7.86 6.14c-.12.34-.25.68-.38 1.03s-.2.54-.21.59c.03.04.11.14.24.28.14.14.21.24.23.28.01.09-.03.29-.14.6-.1.31-.31.54-.62.7-.4.14-.77.17-1.12.08-.34-.09-.62-.2-.84-.34-.21-.15-.32-.23-.33-.24l3.36-3.66.01.12c0 .03-.07.21-.2.56zm10.78 4.58c-.7.53-1.43 1.04-2.18 1.52-.74.47-1.4.81-1.98 1.02s-.97.17-1.18-.11c-.19-.35-.2-.86-.02-1.52.18-.67.42-1.36.74-2.07.32-.65.59-1.32.82-1.99s.34-1.36.33-2.05-.22-1.37-.63-2.06c-.36-.56-.9-.98-1.62-1.26s-1.52-.42-2.4-.41-1.75.16-2.61.47c-.67.26-1.29.65-1.86 1.17-.56.52-1 1.17-1.33 1.96-.11.28-.19.66-.23 1.12-.04.45-.06.87-.07 1.24 0 .37-.01.57 0 .58-.36.25-.77.55-1.23.91s-.92.79-1.37 1.29c-.47.55-.87 1.11-1.2 1.64-.33.55-.53.96-.61 1.25-.04.12-.01.44.1.99.11.54.38 1.15.83 1.86.45.7 1.18 1.35 2.18 1.94.01.01.04-.01.08-.06.04-.04.07-.07.07-.07-.02-.01-.14-.14-.36-.4-.22-.25-.43-.58-.63-.98-.21-.4-.29-.83-.26-1.27.04-.61.43-1.16 1.16-1.67.74-.51 2-.95 3.78-1.33.51-.13.94-.32 1.32-.59.37-.26.57-.41.59-.44-.14 1.42.12 2.72.75 3.88.54.98 1.24 1.87 2.11 2.65l8.25-8.23.02-.03c-.39.3-.84.65-1.36 1.05z" fill="#f00"/></svg>