<svg xmlns="http://www.w3.org/2000/svg" viewBox="0 0 192 192">
  <path fill="#233870" d="M0 0h192v192H0z"/>
  <path d="M17.011719 95.773438c0 43.65625 35.554687 79.214843 78.761719 79.214843 43.65625 0 79.214843-35.558593 79.214843-79.214843s-35.558593-78.761719-79.214843-78.761719c-43.207032 0-78.761719 35.105469-78.761719 78.761719zm0 0" fill="#fac315"/>
  <path d="M37.804688 97.667969c0-17.554688 13.503906-29.707031 31.058593-29.707031 13.949219 0 21.152344 7.652343 25.203125 15.304687l-13.054687 6.300781c-1.796875-4.503906-6.75-8.554687-12.148438-8.554687-9.453125 0-16.203125 7.203125-16.203125 16.65625 0 9.449219 6.75 16.652343 16.203125 16.652343 5.398438 0 10.351563-3.601562 12.148438-8.101562l13.054687 5.851562c-3.601562 7.199219-11.253906 15.300782-25.203125 15.300782-17.554687 0-31.058593-12.152344-31.058593-29.703125m99.917968 11.25c0-3.148438-2.25-5.402344-6.300781-5.402344H115.21875v10.351563h16.203125c4.050781 0 6.300781-1.796876 6.300781-4.949219zm-1.351562-22.953125c0-2.699219-2.25-4.5-5.398438-4.5H115.21875v9.449218h15.753906c3.148438 0 5.398438-1.800781 5.398438-4.949218zm-37.804688 40.507812V68.863281h36.007813c12.601562 0 18.453125 7.648438 18.453125 14.851563 0 7.199218-4.953125 11.699218-10.804688 13.050781 6.753906.902344 12.152344 6.75 12.152344 13.953125 0 8.550781-6.300781 15.753906-18.453125 15.753906zm0 0" fill="#182a50"/>
</svg>
