<svg version="1.1" baseProfile="tiny" xmlns="http://www.w3.org/2000/svg" xmlns:xlink="http://www.w3.org/1999/xlink" 
	width="330px" height="66px" viewBox="0 0 330 66">
<path fill="#FFFFFF" d="M16.141,49.139c0.225,0.894,0.671,0.894,1,0.038c2.823-7.356,8.03-13.928,16.859-10.809v4.882
	c0,2.076,1.096,2.423,2.518,1.12l12.627-11.517c0.714-0.649,0.708-1.7-0.006-2.35L36.512,18.982C35.096,17.69,34,17.614,34,20v5
	c-10.445,0-18.5,8.98-18.5,20.053C15.5,46.766,15.735,47.516,16.141,49.139z"/>
<path fill="#FFFFFF" d="M95.728,24.519v4.195h-4.731v5.689h4.731V49h5.658V34.403h4.719l0.707-5.689h-5.425v-3.632
	c0-1.647,0.441-2.77,2.716-2.77l2.902-0.001v-5.087c-0.502-0.069-2.224-0.224-4.228-0.224C98.591,17,95.728,19.652,95.728,24.519z"
	/>
<path fill="#FFFFFF" d="M180.816,20.709c-1.327,0.781-2.797,1.348-4.362,1.654c-1.252-1.325-3.038-2.153-5.014-2.153
	c-3.793,0-6.868,3.052-6.868,6.816c0,0.534,0.06,1.055,0.178,1.554c-5.708-0.284-10.769-2.998-14.157-7.121
	c-0.592,1.006-0.93,2.178-0.93,3.427c0,2.364,1.212,4.451,3.055,5.673c-1.126-0.036-2.185-0.342-3.111-0.853
	c0,0.028-0.001,0.057-0.001,0.085c0,3.303,2.368,6.058,5.509,6.684c-0.577,0.155-1.183,0.239-1.809,0.239
	c-0.443,0-0.872-0.043-1.292-0.122c0.874,2.708,3.41,4.678,6.416,4.734c-2.35,1.828-5.312,2.917-8.53,2.917
	c-0.554,0-1.101-0.032-1.639-0.095c3.039,1.934,6.649,3.063,10.528,3.063c12.634,0,19.542-10.386,19.542-19.393
	c0-0.295-0.006-0.589-0.021-0.881c1.342-0.961,2.507-2.161,3.428-3.528c-1.232,0.542-2.555,0.908-3.945,1.073
	C179.215,23.636,180.303,22.3,180.816,20.709z"/>
<path fill="#FFFFFF" d="M245.203,26.958c-1.017,0-1.976,0.363-2.734,1.021c-2.697-1.704-6.275-2.798-10.232-2.946l2.358-6.617
	l5.892,1.391c0.004,1.84,1.521,3.336,3.387,3.336c1.867,0,3.388-1.5,3.388-3.344s-1.52-3.344-3.388-3.344
	c-1.418,0-2.633,0.865-3.138,2.087l-6.98-1.647l-2.898,8.126c-4.122,0.077-7.861,1.178-10.658,2.935
	c-0.753-0.644-1.702-0.998-2.709-0.998c-2.286,0-4.148,1.837-4.148,4.094c0,1.396,0.728,2.684,1.907,3.435
	c-0.072,0.409-0.113,0.823-0.113,1.245c0,5.909,7.256,10.718,16.177,10.718c8.921,0,16.177-4.808,16.177-10.718
	c0-0.409-0.038-0.812-0.106-1.209c1.211-0.745,1.962-2.052,1.962-3.47C249.35,28.794,247.49,26.958,245.203,26.958z M223.629,33.839
	c0-1.389,1.14-2.515,2.549-2.515c1.407,0,2.549,1.127,2.549,2.515c0,1.39-1.14,2.516-2.549,2.516
	C224.77,36.355,223.629,35.229,223.629,33.839z M237.325,40.643c-0.076,0.078-1.904,1.915-6.038,1.915
	c-4.154,0-5.816-1.862-5.884-1.941c-0.234-0.27-0.202-0.676,0.071-0.907c0.272-0.229,0.68-0.2,0.914,0.066
	c0.037,0.04,1.424,1.496,4.899,1.496c3.535,0,5.084-1.507,5.1-1.522c0.25-0.252,0.662-0.258,0.919-0.011
	C237.563,39.986,237.572,40.388,237.325,40.643z M236.819,36.355c-1.408,0-2.55-1.126-2.55-2.516c0-1.389,1.14-2.515,2.55-2.515
	c1.407,0,2.548,1.127,2.548,2.515C239.366,35.229,238.226,36.355,236.819,36.355z"/>
<path fill="#FFFFFF" d="M312.89,31.56v-0.023h-4.204V27.05h-2.46v4.487h-4.229v2.504h0.027v0.095h4.203v4.403h2.46v-4.403h4.306
	V31.56L312.89,31.56z M300.423,18.446h-4.985c-2.221,0-4.568-0.161-6.72,0.472c-3.657,1.076-6.304,4.879-5.608,8.703
	c0.692,3.799,4.217,5.869,7.789,5.276c-0.762,2.007-0.315,3.015,0.77,4.514c-2.726,0.081-5.574,0.547-7.873,2.106
	c-2.089,1.417-3.404,4.148-2.494,6.633c1.822,4.978,9.23,5.039,13.286,3.327c2.215-0.935,4.15-2.836,4.788-5.195
	c0.733-2.711-0.268-5.087-2.19-6.981c-1.073-1.058-3.28-2.234-3.035-3.973c0.172-1.219,1.368-2.063,2.173-2.87
	c0.85-0.942,1.492-1.958,1.737-3.216c0.505-2.592-0.237-5.751-2.571-7.279c0.443,0,2.479,0,2.479,0L300.423,18.446z M296.042,41.38
	c1.997,2.393,0.815,5.884-2.016,6.885c-2.773,0.98-6.618,0.464-8.599-1.862c-0.932-1.094-1.254-2.622-0.883-4.01
	c0.432-1.621,1.736-2.552,3.214-3.145c1.446-0.457,3.212-0.759,5-0.636c0,0,1.024,0.757,1.698,1.311
	C295.009,40.379,295.553,40.854,296.042,41.38C296.703,42.172,295.342,40.629,296.042,41.38z M294.745,29.014
	c-0.516,2.989-3.977,3.614-5.966,1.612c-1.922-1.935-3.006-5.6-2.098-8.226c0.887-2.563,3.958-3.396,5.889-1.378
	C294.501,23.037,295.02,26.345,294.745,29.014C294.648,29.575,294.803,28.452,294.745,29.014z"/>
</svg>