<svg width="277" height="67" viewBox="0 0 277 67" fill="none" xmlns="http://www.w3.org/2000/svg">
<path d="M146.016 19.328V43H139.504V40.184C138.595 41.2107 137.509 42.0027 136.248 42.56C134.987 43.088 133.623 43.352 132.156 43.352C129.047 43.352 126.583 42.4573 124.764 40.668C122.945 38.8787 122.036 36.224 122.036 32.704V19.328H128.9V31.692C128.9 35.5053 130.499 37.412 133.696 37.412C135.339 37.412 136.659 36.884 137.656 35.828C138.653 34.7427 139.152 33.144 139.152 31.032V19.328H146.016ZM162.407 18.976C164.607 18.976 166.602 19.4893 168.391 20.516C170.21 21.5133 171.632 22.936 172.659 24.784C173.686 26.6027 174.199 28.7293 174.199 31.164C174.199 33.5987 173.686 35.74 172.659 37.588C171.632 39.4067 170.21 40.8293 168.391 41.856C166.602 42.8533 164.607 43.352 162.407 43.352C159.151 43.352 156.672 42.3253 154.971 40.272V43H148.415V10.352H155.279V21.836C157.01 19.9293 159.386 18.976 162.407 18.976ZM161.219 37.72C162.979 37.72 164.416 37.1333 165.531 35.96C166.675 34.7573 167.247 33.1587 167.247 31.164C167.247 29.1693 166.675 27.5853 165.531 26.412C164.416 25.2093 162.979 24.608 161.219 24.608C159.459 24.608 158.007 25.2093 156.863 26.412C155.748 27.5853 155.191 29.1693 155.191 31.164C155.191 33.1587 155.748 34.7573 156.863 35.96C158.007 37.1333 159.459 37.72 161.219 37.72ZM198.682 19.328V43H192.17V40.184C191.261 41.2107 190.175 42.0027 188.914 42.56C187.653 43.088 186.289 43.352 184.822 43.352C181.713 43.352 179.249 42.4573 177.43 40.668C175.611 38.8787 174.702 36.224 174.702 32.704V19.328H181.566V31.692C181.566 35.5053 183.165 37.412 186.362 37.412C188.005 37.412 189.325 36.884 190.322 35.828C191.319 34.7427 191.818 33.144 191.818 31.032V19.328H198.682ZM215.469 18.976C218.402 18.976 220.764 19.856 222.553 21.616C224.372 23.376 225.281 25.9867 225.281 29.448V43H218.417V30.504C218.417 28.6267 218.006 27.2333 217.185 26.324C216.364 25.3853 215.176 24.916 213.621 24.916C211.89 24.916 210.512 25.4587 209.485 26.544C208.458 27.6 207.945 29.184 207.945 31.296V43H201.081V19.328H207.637V22.1C208.546 21.1027 209.676 20.34 211.025 19.812C212.374 19.2547 213.856 18.976 215.469 18.976ZM242.811 41.856C242.136 42.3547 241.3 42.736 240.303 43C239.335 43.2347 238.308 43.352 237.223 43.352C234.407 43.352 232.222 42.6333 230.667 41.196C229.142 39.7587 228.379 37.6467 228.379 34.86V25.136H224.727V19.856H228.379V14.092H235.243V19.856H241.139V25.136H235.243V34.772C235.243 35.7693 235.492 36.5467 235.991 37.104C236.519 37.632 237.252 37.896 238.191 37.896C239.276 37.896 240.2 37.6027 240.963 37.016L242.811 41.856ZM266.552 19.328V43H260.04V40.184C259.131 41.2107 258.045 42.0027 256.784 42.56C255.523 43.088 254.159 43.352 252.692 43.352C249.583 43.352 247.119 42.4573 245.3 40.668C243.481 38.8787 242.572 36.224 242.572 32.704V19.328H249.436V31.692C249.436 35.5053 251.035 37.412 254.232 37.412C255.875 37.412 257.195 36.884 258.192 35.828C259.189 34.7427 259.688 33.144 259.688 31.032V19.328H266.552ZM268.071 12.2H276.255L274.891 32.308H269.435L268.071 12.2ZM272.163 43.352C270.96 43.352 269.948 42.9707 269.127 42.208C268.335 41.416 267.939 40.4627 267.939 39.348C267.939 38.2333 268.335 37.3093 269.127 36.576C269.919 35.8133 270.931 35.432 272.163 35.432C273.395 35.432 274.407 35.8133 275.199 36.576C275.991 37.3093 276.387 38.2333 276.387 39.348C276.387 40.4627 275.976 41.416 275.155 42.208C274.363 42.9707 273.366 43.352 272.163 43.352Z" fill="white"/>
<path fill-rule="evenodd" clip-rule="evenodd" d="M5 7C2.23858 7 0 9.23858 0 12V52C0 54.7614 2.23858 57 5 57H110C112.761 57 115 54.7614 115 52V12C115 9.23858 112.761 7 110 7H5ZM108.231 12H100.047L101.411 32.108H106.867L108.231 12ZM101.103 42.008C101.924 42.7707 102.936 43.152 104.139 43.152C105.342 43.152 106.339 42.7707 107.131 42.008C107.952 41.216 108.363 40.2627 108.363 39.148C108.363 38.0333 107.967 37.1093 107.175 36.376C106.383 35.6133 105.371 35.232 104.139 35.232C102.907 35.232 101.895 35.6133 101.103 36.376C100.311 37.1093 99.9149 38.0333 99.9149 39.148C99.9149 40.2627 100.311 41.216 101.103 42.008ZM11.292 41.612C13.2867 42.6387 15.5307 43.152 18.024 43.152C20.5173 43.152 22.7467 42.6387 24.712 41.612C26.6773 40.556 28.2173 39.104 29.332 37.256C30.4467 35.408 31.004 33.3107 31.004 30.964C31.004 28.6173 30.4467 26.52 29.332 24.672C28.2173 22.824 26.6773 21.3867 24.712 20.36C22.7467 19.304 20.5173 18.776 18.024 18.776C15.5307 18.776 13.2867 19.304 11.292 20.36C9.32667 21.3867 7.78667 22.824 6.672 24.672C5.55733 26.52 5 28.6173 5 30.964C5 33.3107 5.55733 35.408 6.672 37.256C7.78667 39.104 9.32667 40.556 11.292 41.612ZM22.336 35.76C21.2213 36.9333 19.784 37.52 18.024 37.52C16.264 37.52 14.812 36.9333 13.668 35.76C12.524 34.5573 11.952 32.9587 11.952 30.964C11.952 28.9693 12.524 27.3853 13.668 26.212C14.812 25.0093 16.264 24.408 18.024 24.408C19.784 24.408 21.2213 25.0093 22.336 26.212C23.48 27.3853 24.052 28.9693 24.052 30.964C24.052 32.9587 23.48 34.5573 22.336 35.76ZM68.988 21.416C67.2574 19.656 64.9107 18.776 61.948 18.776C60.188 18.776 58.56 19.1133 57.064 19.788C55.5974 20.4627 54.38 21.416 53.412 22.648C52.5907 21.3867 51.5054 20.4333 50.156 19.788C48.8067 19.1133 47.296 18.776 45.624 18.776C44.0987 18.776 42.6907 19.04 41.4 19.568C40.1387 20.096 39.068 20.8587 38.188 21.856V19.128H31.632V42.8H38.496V30.92C38.496 28.8667 38.9654 27.3267 39.904 26.3C40.8427 25.244 42.104 24.716 43.688 24.716C46.68 24.716 48.176 26.5787 48.176 30.304V42.8H55.04V30.92C55.04 28.8667 55.5094 27.3267 56.448 26.3C57.3867 25.244 58.6627 24.716 60.276 24.716C61.7134 24.716 62.8134 25.1853 63.576 26.124C64.368 27.0333 64.764 28.4267 64.764 30.304V42.8H71.628V29.248C71.628 25.7573 70.748 23.1467 68.988 21.416ZM98.4983 19.128V38.84C98.4983 43.1813 97.3689 46.408 95.1103 48.52C92.8516 50.632 89.5516 51.688 85.2103 51.688C82.9223 51.688 80.7516 51.4093 78.6983 50.852C76.645 50.2947 74.9436 49.488 73.5943 48.432L76.3223 43.504C77.3196 44.3253 78.5809 44.9707 80.1063 45.44C81.6316 45.9387 83.1569 46.188 84.6823 46.188C87.0583 46.188 88.8036 45.6453 89.9183 44.56C91.0623 43.504 91.6343 41.8907 91.6343 39.72V38.708C89.845 40.6733 87.3516 41.656 84.1543 41.656C81.9836 41.656 79.9889 41.1867 78.1703 40.248C76.3809 39.28 74.9583 37.9307 73.9023 36.2C72.8463 34.4693 72.3183 32.4747 72.3183 30.216C72.3183 27.9573 72.8463 25.9627 73.9023 24.232C74.9583 22.5013 76.3809 21.1667 78.1703 20.228C79.9889 19.26 81.9836 18.776 84.1543 18.776C87.5863 18.776 90.1969 19.9053 91.9863 22.164V19.128H98.4983ZM85.5183 36.024C87.3369 36.024 88.8183 35.496 89.9623 34.44C91.1356 33.3547 91.7223 31.9467 91.7223 30.216C91.7223 28.4853 91.1356 27.092 89.9623 26.036C88.8183 24.9507 87.3369 24.408 85.5183 24.408C83.6996 24.408 82.2036 24.9507 81.0303 26.036C79.8569 27.092 79.2703 28.4853 79.2703 30.216C79.2703 31.9467 79.8569 33.3547 81.0303 34.44C82.2036 35.496 83.6996 36.024 85.5183 36.024Z" fill="white"/>
<path d="M37.7273 44L17.5 54.5L33.7273 67L37.7273 44Z" fill="white"/>
</svg>
