<?xml version="1.0" encoding="UTF-8"?>
<svg width="14px" height="14px" viewBox="0 0 14 14" version="1.1" xmlns="http://www.w3.org/2000/svg" xmlns:xlink="http://www.w3.org/1999/xlink">
    <!-- Generator: Sketch 56.3 (81716) - https://sketch.com -->
    <title>Group</title>
    <desc>Created with Sketch.</desc>
    <g id="v2-Designs" stroke="none" stroke-width="1" fill="none" fill-rule="evenodd">
        <g id="Blog-Post-show" transform="translate(-1080.000000, -112.000000)" fill="#FFFFFF" fill-rule="nonzero">
            <g id="Group-4" transform="translate(-125.000000, -409.000000)">
                <g id="Group-4-Copy" transform="translate(1048.000000, 512.000000)">
                    <g id="Group-2" transform="translate(15.000000, 7.000000)">
                        <g id="Group" transform="translate(142.000000, 2.000000)">
                            <path d="M14,14 L11.2104399,13.9784657 C11.19884,7.81095351 6.18231317,2.79656279 0.0142926894,2.78848742 L0,0 C7.71888085,0 14,6.28263795 14,14 Z M2.03743323,13.9699762 C0.914935542,13.9699762 0.00497137023,13.0603619 0.00497137023,11.9382959 C0.00497137023,10.8162298 0.914935542,9.90661559 2.03743323,9.90661559 C3.15993093,9.90661559 4.0698951,10.8162298 4.0698951,11.9382959 C4.0698951,13.0603619 3.15993093,13.9699762 2.03743323,13.9699762 Z" id="Combined-Shape"></path>
                            <path d="M9,14 C9,9.0369856 4.96141436,5 0,5 L0,5 L0,7.71498017 C3.46504437,7.71498017 6.28414896,10.5343982 6.28414896,14 L9,14 Z" id="Shape"></path>
                        </g>
                    </g>
                </g>
            </g>
        </g>
    </g>
</svg>