<svg version="1.1" xmlns="http://www.w3.org/2000/svg" xmlns:xlink="http://www.w3.org/1999/xlink" xmlns:a="http://ns.adobe.com/AdobeSVGViewerExtensions/3.0/" x="0px" y="0px" width="732.5px" height="64.8px" viewBox="0 0 732.5 64.8" xml:space="preserve"><title>AddictiveTips</title>
<style type="text/css">.st0{fill:#FFFFFF;}.st1{fill:#00B7E8;}.st2{fill:#7ED321;}.shadow{box-shadow: 1px 1px 4px rgba(0,0,0,.3);}</style><defs><filter id="dropshadow" height="130%"><feGaussianBlur in="SourceAlpha" stdDeviation="2"/><feOffset dx="0" dy="0" result="offsetblur"/><feComponentTransfer><feFuncA type="linear" slope="0.5"/></feComponentTransfer><feMerge><feMergeNode/><feMergeNode in="SourceGraphic"/></feMerge></filter></defs><path class="st0" d="M5.1,55.2H0L19.8,9.5h4.5l19.6,45.7h-5.2l-5-12H10.1L5.1,55.2z M11.8,39H32L21.9,14.7L11.8,39z M63.5,9.5h15.2 c2.8,0,5.7,0.5,8.6,1.4c2.9,1,5.4,2.4,7.7,4.3c2.3,1.9,4.2,4.3,5.6,7.2c1.4,2.9,2.1,6.2,2.1,10c0,3.8-0.7,7.2-2.1,10 c-1.4,2.8-3.3,5.2-5.6,7.1c-2.3,1.9-4.9,3.3-7.7,4.3c-2.9,0.9-5.7,1.4-8.6,1.4H63.5V9.5z M68.2,51.1h9.2c3.4,0,6.4-0.5,9-1.6 c2.6-1.1,4.7-2.5,6.4-4.2c1.7-1.7,2.9-3.7,3.8-6c0.8-2.2,1.3-4.5,1.3-6.9c0-2.4-0.4-4.7-1.3-6.9c-0.8-2.2-2.1-4.2-3.8-6 c-1.7-1.7-3.8-3.2-6.4-4.2c-2.6-1.1-5.6-1.6-9-1.6h-9.2V51.1z M125.3,9.5h15.2c2.8,0,5.7,0.5,8.6,1.4c2.9,1,5.4,2.4,7.7,4.3 c2.3,1.9,4.2,4.3,5.6,7.2c1.4,2.9,2.1,6.2,2.1,10c0,3.8-0.7,7.2-2.1,10c-1.4,2.8-3.3,5.2-5.6,7.1c-2.3,1.9-4.9,3.3-7.7,4.3 c-2.9,0.9-5.7,1.4-8.6,1.4h-15.2V9.5z M130,51.1h9.2c3.4,0,6.4-0.5,9-1.6c2.6-1.1,4.7-2.5,6.4-4.2c1.7-1.7,2.9-3.7,3.8-6 c0.8-2.2,1.3-4.5,1.3-6.9c0-2.4-0.4-4.7-1.3-6.9c-0.8-2.2-2.1-4.2-3.8-6c-1.7-1.7-3.8-3.2-6.4-4.2s-5.6-1.6-9-1.6H130V51.1z  M191.7,55.2h-4.6V9.5h4.6V55.2z M255.3,47.8c-0.8,1.2-1.7,2.3-2.8,3.3c-1.1,1-2.4,1.9-3.8,2.7c-1.4,0.8-3,1.4-4.8,1.9 c-1.7,0.5-3.6,0.7-5.7,0.7c-3.4,0-6.6-0.6-9.6-1.8c-2.9-1.2-5.4-2.9-7.6-5c-2.1-2.1-3.8-4.7-4.9-7.6c-1.2-2.9-1.8-6.1-1.8-9.6 s0.6-6.7,1.8-9.6c1.2-2.9,2.9-5.5,5-7.6c2.1-2.1,4.6-3.8,7.6-5s6.1-1.8,9.5-1.8c1.7,0,3.3,0.2,4.9,0.5c1.6,0.3,3.1,0.8,4.5,1.5 c1.4,0.6,2.7,1.4,3.9,2.3c1.2,0.9,2.1,1.9,2.9,3l-3.9,2.8c-0.5-0.7-1.1-1.5-1.9-2.2c-0.8-0.7-1.7-1.4-2.8-1.9 c-1.1-0.6-2.2-1-3.5-1.4c-1.3-0.3-2.6-0.5-4.1-0.5c-3,0-5.6,0.5-8,1.6c-2.3,1.1-4.3,2.5-6,4.3c-1.6,1.8-2.9,3.9-3.7,6.3 c-0.9,2.4-1.3,4.9-1.3,7.6s0.4,5.2,1.3,7.6c0.9,2.4,2.1,4.5,3.8,6.3c1.6,1.8,3.6,3.3,6,4.3c2.3,1.1,5,1.6,7.9,1.6 c2.6,0,5.1-0.5,7.5-1.6c2.4-1.1,4.3-2.8,5.9-5.2L255.3,47.8z M290.4,55.2h-4.6V13.7h-15.3V9.5h35.2v4.1h-15.3V55.2z M330.1,55.2 h-4.6V9.5h4.6V55.2z M369.2,49.2h0.1l14.8-39.7h5l-17.5,45.7h-4.9L349.3,9.5h5L369.2,49.2z M413,51.1h24.5v4.1h-29.1V9.5h28.3v4.1 H413v15.7h22.1v4.1H413V51.1z"/><path class="st1" d="M477.6,19v36.3h-11V19h-12.9V9.5h36.9V19H477.6z M508.5,55.2V9.5h11.1v45.7H508.5z M576.6,23.6 c0,2.7-0.5,4.9-1.5,6.7c-1,1.8-2.3,3.3-4,4.4c-1.7,1.1-3.6,1.9-5.8,2.5c-2.2,0.5-4.5,0.8-6.8,0.8H553v17.2h-11V9.5h16.8 c2.5,0,4.8,0.2,7,0.7c2.2,0.5,4.1,1.3,5.7,2.4c1.6,1.1,2.9,2.5,3.8,4.3C576.2,18.8,576.6,21,576.6,23.6z M565.6,23.7 c0-1.1-0.2-2-0.6-2.6c-0.4-0.7-1-1.2-1.7-1.6c-0.7-0.4-1.6-0.6-2.5-0.8c-0.9-0.1-1.9-0.2-2.9-0.2H553v10.8h4.6c1,0,2-0.1,3-0.3 s1.8-0.5,2.6-0.9c0.8-0.4,1.3-1,1.8-1.7C565.4,25.6,565.6,24.7,565.6,23.7z M620.3,21.4c-1-1.2-2.2-2.2-3.7-2.9 c-1.5-0.7-3-1.1-4.4-1.1c-0.7,0-1.5,0.1-2.2,0.2c-0.8,0.1-1.4,0.4-2,0.7c-0.6,0.4-1.1,0.8-1.5,1.4c-0.4,0.6-0.6,1.3-0.6,2.2 c0,0.8,0.2,1.4,0.5,1.9c0.3,0.5,0.8,1,1.4,1.4c0.6,0.4,1.4,0.7,2.2,1.1c0.9,0.3,1.8,0.7,2.9,1c1.5,0.5,3.2,1.1,4.8,1.7 c1.7,0.6,3.2,1.5,4.6,2.5c1.4,1,2.5,2.3,3.4,3.8s1.4,3.4,1.4,5.7c0,2.6-0.5,4.9-1.5,6.8c-1,1.9-2.3,3.5-3.9,4.7 c-1.6,1.2-3.5,2.2-5.6,2.8c-2.1,0.6-4.3,0.9-6.5,0.9c-3.3,0-6.4-0.6-9.5-1.7c-3.1-1.1-5.6-2.8-7.6-4.9l7.2-7.4 c1.1,1.4,2.6,2.5,4.4,3.5c1.8,0.9,3.7,1.4,5.5,1.4c0.8,0,1.6-0.1,2.4-0.3c0.8-0.2,1.5-0.5,2-0.8c0.6-0.4,1-0.9,1.4-1.5 c0.3-0.6,0.5-1.4,0.5-2.3c0-0.9-0.2-1.6-0.6-2.2c-0.4-0.6-1-1.2-1.8-1.6c-0.8-0.5-1.8-0.9-3-1.4c-1.2-0.4-2.5-0.8-4-1.3 c-1.5-0.5-2.9-1-4.3-1.7s-2.6-1.5-3.7-2.5c-1.1-1-2-2.2-2.6-3.7c-0.7-1.4-1-3.2-1-5.3c0-2.5,0.5-4.7,1.5-6.5c1-1.8,2.4-3.3,4.1-4.5 c1.7-1.2,3.6-2,5.7-2.5c2.1-0.5,4.2-0.8,6.4-0.8c2.6,0,5.2,0.5,7.9,1.4c2.7,1,5,2.3,7.1,4.2L620.3,21.4z"/><path class="st2" d="M732.5,32.4v32.4h-32.4c-17.9,0-32.4-14.5-32.4-32.4S682.2,0,700.1,0S732.5,14.5,732.5,32.4z"/><polygon class="st0" filter="url(#dropshadow)" points="714.4,28.3 704.2,28.3 704.2,18.1 696,18.1 696,28.3 685.8,28.3 685.8,36.5 696,36.5 696,46.7 704.2,46.7 704.2,36.5 714.4,36.5 "/></svg>