<svg height="14" viewBox="0 0 20 14" width="20" xmlns="http://www.w3.org/2000/svg"><path d="m32.6210938 17.2485695c.1523437-.1175328.3789062-.0075828.3789062.1781949v7.753373c0 1.0047158-.8398438 1.8198626-1.875 1.8198626h-16.25c-1.0351562 0-1.875-.8151468-1.875-1.8198626v-7.7495817c0-.189569.2226562-.2957276.3789062-.1781948.875.6597002 2.0351563 1.4975952 6.0195313 4.3070082.8242187.5838725 2.2148437 1.8122798 3.6015625 1.8046971 1.3945312.0113741 2.8125-1.2435728 3.6054688-1.8046971 3.984375-2.809413 5.140625-3.6510994 6.015625-4.3107996zm-9.6210938 4.8512878c.90625.0142185 2.2109375-1.0379525 2.8671875-1.4716175 5.1835937-3.4231104 5.578125-3.7216995 6.7734375-4.5748111.2265625-.1599584.359375-.4087827.359375-.6718254v-.6753801c0-.9419774-.8398438-1.7062232-1.875-1.7062232h-16.25c-1.0351562 0-1.875.7642458-1.875 1.7062232v.6753801c0 .2630427.1328125.5083123.359375.6718254 1.1953125.849557 1.5898438 1.1517007 6.7734375 4.5748111.65625.433665 1.9609375 1.485836 2.8671875 1.4716175z" fill="#9a9a9a" transform="translate(-13 -13)"/></svg>