<svg data-name="图层 1" xmlns="http://www.w3.org/2000/svg" width="53" height="18"><g><g><g><path fill="#00a4ff" d="M1.608 4.047h9.975V2.586H1.608v1.461zm4.236 5.689h9.448V8.275H.062v1.461h4.083c-.843 2.224-2.959 7.8-2.974 7.845a.079.079 0 00.075.112h13.207a.081.081 0 00.073-.116l-1.892-5h-1.58a.081.081 0 00-.076.111l1.339 3.54h-8.93z"/><path fill="#fff" d="M32.39 16.259V8.134h3.709V6.656H32.39V1.81h-1.605v4.846h-3.709v1.478h3.709v8.125h-4.2v1.478H36.59v-1.478h-4.2z"/><path d="M27.744 12a.081.081 0 00.06-.136l-2.1-2.5h-.669a10.685 10.685 0 001.514-2.851l.025-.077V5.172h-5.259v1.343h3.668a12.887 12.887 0 01-3.8 4.749v1.645a.082.082 0 00.125.069 12.826 12.826 0 002.084-1.686V18h1.471v-7.352L25.993 12zM22.289 1.81a.082.082 0 00-.068.127l1.532 2.472h1.584a.084.084 0 00.07-.127L23.875 1.81zm29.026 2.845h-1.906l-2.821 3.682L43.7 4.655h-1.9a.082.082 0 00-.067.132l3.83 4.889-4.026 5.254a.083.083 0 00.069.132h1.905l3.1-4.048 3.171 4.048H51.7a.079.079 0 00.064-.127l-4.127-5.259 3.746-4.889a.083.083 0 00-.068-.132" fill="#fff"/><path fill="#fff" d="M52.861 16.062H40.55V3.546h12.182V2.069H38.945V17.54h13.916v-1.478z"/><path fill="#00a4ff" d="M19.33 2.736h-2.724V0h-1.46v2.736h-2.723v1.466h2.723v2.735h1.46V4.202h2.724V2.736z"/></g></g></g></svg>