<?xml version="1.0" encoding="UTF-8"?>
<svg width="60" height="60" version="1.1" viewBox="0 0 15.9 15.9" xmlns="http://www.w3.org/2000/svg" xmlns:cc="http://creativecommons.org/ns#" xmlns:dc="http://purl.org/dc/elements/1.1/" xmlns:rdf="http://www.w3.org/1999/02/22-rdf-syntax-ns#">
<path d="m8.44 13.2h-7.82v-.221l3.98-5.36-3.98-5.28v-.221h7.6l.161 2h-.238q-.0952-.821-.465-1.17-.363-.351-1.02-.351h-4.4l3.35 4.51-3.75 5.04h4.86q.416 0 .911-.161.339-.107.56-.399.227-.285.375-.905l.238.0476z" fill="#f00" stroke="#f00" stroke-width=".305"/>
<path d="m9.55 5.12h2.56v.221q-.244 0-.345.0834-.0952.0834-.0952.221 0 .143.208.44.0654.0952.197.298l.386.619.446-.619q.429-.589.429-.744 0-.125-.101-.208-.101-.0892-.328-.0892v-.221h1.84v.221q-.292.0178-.506.161-.292.202-.798.881l-.744.994 1.36 1.96q.5.72.714.869.214.143.553.161v.214h-2.58v-.214q.268 0 .416-.12.113-.0834.113-.221 0-.137-.381-.69l-.798-1.16-.875 1.16q-.405.542-.405.643 0 .143.131.262.137.113.405.125v.214h-1.78v-.214q.214-.0298.375-.148.227-.172.761-.881l1.14-1.52-1.04-1.5q-.44-.643-.684-.804-.238-.167-.601-.167z" fill="#f00" stroke="#f00" stroke-width=".305"/>
</svg>

