<svg xmlns="http://www.w3.org/2000/svg" viewBox="0 0 456 120"><polygon points="255.5 29.5 264.5 0 264.4 30.8 281.7 5.3 272.5 34.7 296.6 15.4 279.1 40.9 307.8 29.5 283.6 48.6 314.4 46.2 285.6 57.4 315.7 64.2 285 66.4 311.7 81.7 281.7 74.7 302.7 97.3 276.1 81.8 289.5 109.5 268.6 86.8 273.3 117.3 260 89.5 255.5 120 251.1 89.5 237.8 117.3 242.5 86.8 221.6 109.5 235 81.8 208.4 97.3 229.4 74.7 199.4 81.7 226.1 66.4 195.4 64.2 225.5 57.4 196.7 46.2 227.5 48.6 203.3 29.5 232 40.9 214.5 15.4 238.6 34.7 229.4 5.3 246.7 30.8 246.6 0 " fill="#1EBAED"/><circle cx="209.8" cy="43.5" r="10.5" fill="#FFF"/><circle cx="304.9" cy="59.5" r="10.5" fill="#FFF"/><path d="M8.9 20.1h12.9l10.9 24.1L44 20.1h12.9L65.4 82H48.9l-3.6-25.5h-0.2L32.7 82.4 20.3 56.5h-0.2L16.5 82H0L8.9 20.1z"/><path d="M88.2 36.4c12.9 0 23.3 10.4 23.3 23.3 0 12.9-10.4 23.3-23.3 23.3S64.9 72.6 64.9 59.7C64.9 46.8 75.3 36.4 88.2 36.4zM88.2 68c4.6 0 8.3-3.7 8.3-8.3 0-4.6-3.7-8.3-8.3-8.3s-8.3 3.7-8.3 8.3C79.9 64.4 83.6 68 88.2 68z"/><path d="M112.9 68.1c0.7 0.3 2.4 1.1 4.5 1.1 1.9 0 4-0.7 4-2.8 0-3.7-9.2-6.3-9.2-16.6 0-9.6 6.5-13.5 15.4-13.5 4 0 7.1 0.2 8.7 0.3v14.1c-1.3-0.9-3.1-1.5-5.1-1.5 -1.7 0-3.4 1.1-3.4 3 0 3.3 9.7 7.1 9.7 17.3 0 8.5-5.2 13.4-16.4 13.4 -1.3 0-3.4 0-8.2-1V68.1z"/><path d="M142.3 31.9l15-8.6v14.1h5.5v12.9h-5.5v12.2c0 2.1 0 4.5 4.4 4.5 1.3 0 1.7-0.2 2.2-0.3L161.7 82c-12.6 0-19.4 0-19.4-11.3V50.3h-3.1V37.4h3.1V31.9z"/><path d="M190.3 20.1h21.3c14.3 0 21.5 8.7 21.5 23 0 16.8-11.1 22.9-26.7 22.6V82h-16.2V20.1zM206.4 50h3.1c5.5 0 7.4-3.7 7.4-7.7s-1.9-7.7-7.4-7.7h-3.1V50z"/><path d="M255.7 36.4c12.9 0 23.3 10.4 23.3 23.3 0 12.9-10.4 23.3-23.3 23.3 -12.9 0-23.3-10.4-23.3-23.3C232.4 46.8 242.8 36.4 255.7 36.4zM255.7 68c4.6 0 8.3-3.7 8.3-8.3 0-4.6-3.7-8.3-8.3-8.3 -4.6 0-8.3 3.7-8.3 8.3C247.4 64.4 251.1 68 255.7 68z"/><path d="M282.1 37.4h15v4.6h0.2c1.5-2.4 5.2-5.7 11.6-5.7 10.9 0 20.3 9.2 20.3 21.8 0 15.4-8.9 24.8-21.8 24.8 -5.6 0-9-2.4-10.2-3.6v17h-15V37.4zM305.8 51.4c-4.6 0-8.3 3.7-8.3 8.3 0 4.6 3.7 8.3 8.3 8.3 4.7 0 8.4-3.7 8.4-8.3C314.2 55.1 310.5 51.4 305.8 51.4z"/><path d="M370.2 82h-15v-4.1c-2.9 3.2-6.4 5.2-10.9 5.2 -6.2 0-12.9-3.4-12.9-12.8V37.4h15v24.4c0 2.8 0.5 6.2 4.6 6.2 3.7 0 4.3-3.4 4.3-6.2V37.4h15V82z"/><path d="M373.5 20.1h15V82h-15V20.1z"/><path d="M396.9 38c4-0.3 8.2-0.6 12.2-0.6 11.8 0 18.2 2.1 18.2 14V82h-12.9v-3.3h-0.2c-0.5 0.9-3.6 4.3-9.6 4.3 -7.4 0-13.8-5.6-13.8-15.7 0-7.7 5.4-15.1 15.4-15.1 2.7 0 5.2 0.5 6.5 1.2 0-4.5-1.5-5.8-8.1-5.8 -4.6 0-6.8 0.6-9.5 1L396.9 38zM405 66.4c0 2.5 2.1 4.6 4.6 4.6s4.6-2.1 4.6-4.6c0-2.5-2.1-4.6-4.6-4.6S405 63.9 405 66.4z"/><path d="M430.7 37.4h15v4.5h0.2c1.9-3.4 4.4-4.5 9.6-4.5v15c-8.3 0-9.8 2.9-9.8 8V82h-15V37.4z"/></svg>
